<svg width="251" height="250" viewBox="0 0 251 250" fill="none" xmlns="http://www.w3.org/2000/svg">
<path fill-rule="evenodd" clip-rule="evenodd" d="M125.772 0C56.7644 0 0.771973 55.9924 0.771973 125C0.771973 194.008 56.7644 250 125.772 250C194.644 250 250.772 194.008 250.772 125C250.772 55.9924 194.644 0 125.772 0ZM208.337 57.6193C223.25 75.7863 232.199 98.9695 232.47 124.051C228.945 123.373 193.695 116.188 158.174 120.662C157.361 118.899 156.683 117.001 155.87 115.103C153.7 109.952 151.26 104.664 148.82 99.6477C188.136 83.65 206.032 60.602 208.337 57.6193ZM125.772 18.4382C152.887 18.4382 177.697 28.6063 196.542 45.282C194.644 47.9935 178.51 69.5499 140.549 83.7852C123.06 51.654 103.674 25.3525 100.691 21.2852C108.689 19.3872 117.095 18.4382 125.772 18.4382ZM80.3548 28.4707C83.2017 32.2668 102.182 58.7039 119.942 90.157C70.0507 103.444 25.9889 103.173 21.2438 103.173C28.1581 70.0922 50.5279 42.5705 80.3548 28.4707ZM18.939 125.136C18.939 124.051 18.939 122.966 18.939 121.882C23.5485 122.017 75.3382 122.695 128.619 106.698C131.738 112.662 134.584 118.763 137.296 124.864C135.94 125.271 134.449 125.678 133.093 126.084C78.0496 143.845 48.7655 192.38 46.3251 196.448C29.3782 177.603 18.939 152.522 18.939 125.136ZM125.772 231.833C101.097 231.833 78.3208 223.427 60.2893 209.327C62.1874 205.396 83.879 163.639 144.074 142.625C144.345 142.489 144.481 142.489 144.752 142.354C159.801 181.263 165.902 213.937 167.529 223.291C154.649 228.85 140.549 231.833 125.772 231.833ZM185.289 213.53C184.205 207.023 178.51 175.841 164.546 137.473C198.034 132.185 227.317 140.863 230.978 142.083C226.369 171.773 209.286 197.397 185.289 213.53Z" fill="#EA4C89"/>
</svg>
