<svg width="240" height="250" viewBox="0 0 240 250" fill="none" xmlns="http://www.w3.org/2000/svg">
<path fill-rule="evenodd" clip-rule="evenodd" d="M153.709 0.568337L15.3774 10.7849C4.21922 11.7515 0.335938 19.0431 0.335938 27.7847V179.433C0.335938 186.241 2.75257 192.066 8.58583 199.849L41.1021 242.132C46.4437 248.94 51.302 250.399 61.5018 249.915L222.142 240.191C235.725 239.224 239.616 232.899 239.616 222.207V51.6011C239.616 46.0761 237.433 44.4845 231.008 39.7679C230.638 39.5016 230.269 39.2349 229.9 38.9679L185.75 7.85992C175.067 0.0933423 170.7 -0.88998 153.709 0.568337ZM65.1351 48.8094C52.0186 49.6928 49.0437 49.8928 41.5938 43.8345L22.6523 28.768C20.7274 26.818 21.694 24.3847 26.5439 23.9014L159.526 14.1848C170.692 13.2099 176.509 17.1015 180.875 20.5014L203.683 37.0262C204.658 37.5179 207.083 40.4262 204.167 40.4262L66.8351 48.6928L65.1351 48.8094ZM49.8437 220.749V75.9175C49.8437 69.5925 51.7853 66.6759 57.6019 66.1842L215.333 56.951C220.683 56.4677 223.1 59.8677 223.1 66.1842V210.049C223.1 216.374 222.125 221.724 213.392 222.207L62.4518 230.957C53.7186 231.441 49.8437 228.532 49.8437 220.749ZM198.842 83.684C199.808 88.059 198.842 92.434 194.467 92.9339L187.192 94.3756V201.308C180.875 204.708 175.059 206.649 170.2 206.649C162.436 206.649 160.493 204.217 154.679 196.937L154.676 196.933L107.101 122.084V194.499L122.151 197.908C122.151 197.908 122.151 206.658 110.01 206.658L76.535 208.599C75.56 206.649 76.535 201.791 79.9266 200.824L88.6682 198.399V102.651L76.535 101.667C75.56 97.2922 77.985 90.9756 84.7849 90.484L120.701 88.0673L170.2 163.883V96.8089L157.584 95.3589C156.609 90.0006 160.492 86.109 165.342 85.634L198.842 83.684Z" fill="black"/>
<path fill-rule="evenodd" clip-rule="evenodd" d="M15.3774 10.7849L153.709 0.568337C170.7 -0.88998 175.067 0.0933423 185.75 7.85992L229.908 38.9679C230.284 39.2442 230.647 39.5101 230.998 39.7668C237.435 44.4801 239.616 46.077 239.616 51.6011V222.207C239.616 232.899 235.733 239.224 222.142 240.191L61.5018 249.915C51.302 250.399 46.4437 248.94 41.1021 242.132L8.58583 199.849C2.75257 192.066 0.335938 186.241 0.335938 179.433V27.7847C0.335938 19.0431 4.21922 11.7515 15.3774 10.7849ZM65.1351 48.8094C52.0186 49.6928 49.0437 49.8928 41.5938 43.8345L22.6523 28.768C20.7274 26.818 21.694 24.3847 26.5439 23.9014L159.526 14.1848C170.692 13.2099 176.509 17.1015 180.875 20.5014L203.683 37.0262C204.658 37.5179 207.083 40.4262 204.167 40.4262L66.8351 48.6928L65.1351 48.8094ZM49.8437 75.9175V220.749C49.8437 228.532 53.7186 231.441 62.4518 230.957L213.392 222.207C222.125 221.724 223.1 216.374 223.1 210.049V66.1842C223.1 59.8677 220.683 56.4677 215.333 56.951L57.6019 66.1842C51.7853 66.6759 49.8437 69.5925 49.8437 75.9175ZM198.842 83.684C199.808 88.059 198.842 92.434 194.467 92.9339L187.192 94.3756V201.308C180.875 204.708 175.059 206.649 170.2 206.649C162.436 206.649 160.493 204.217 154.679 196.937L154.676 196.933L107.101 122.084V194.499L122.151 197.908C122.151 197.908 122.151 206.658 110.01 206.658L76.535 208.599C75.56 206.649 76.535 201.791 79.9266 200.824L88.6682 198.399V102.651L76.535 101.667C75.56 97.2922 77.985 90.9756 84.7849 90.484L120.701 88.0673L170.2 163.883V96.8089L157.584 95.3589C156.609 90.0006 160.492 86.109 165.342 85.634L198.842 83.684Z" fill="black"/>
<path d="M65.1351 48.8094C52.0186 49.6928 49.0437 49.8928 41.5938 43.8345L22.6523 28.768C20.7274 26.818 21.694 24.3847 26.5439 23.9014L159.526 14.1848C170.692 13.2099 176.509 17.1015 180.875 20.5014L203.683 37.0262C204.658 37.5179 207.083 40.4262 204.167 40.4262L66.8351 48.6928L65.1351 48.8094Z" fill="white"/>
<path fill-rule="evenodd" clip-rule="evenodd" d="M49.8437 220.749V75.9175C49.8437 69.5925 51.7853 66.6759 57.6019 66.1842L215.333 56.951C220.683 56.4677 223.1 59.8677 223.1 66.1842V210.049C223.1 216.374 222.125 221.724 213.392 222.207L62.4518 230.957C53.7186 231.441 49.8437 228.532 49.8437 220.749ZM194.467 92.9339C198.842 92.434 199.808 88.059 198.842 83.684L165.342 85.634C160.492 86.109 156.609 90.0006 157.584 95.3589L170.2 96.8089V163.883L120.701 88.0673L84.7849 90.484C77.985 90.9756 75.56 97.2922 76.535 101.667L88.6682 102.651V198.399L79.9266 200.824C76.535 201.791 75.56 206.649 76.535 208.599L110.01 206.658C122.151 206.658 122.151 197.908 122.151 197.908L107.101 194.499V122.084L154.676 196.933L154.679 196.937C160.493 204.217 162.436 206.649 170.2 206.649C175.059 206.649 180.875 204.708 187.192 201.308V94.3756L194.467 92.9339Z" fill="white"/>
</svg>
