<svg width="210" height="250" viewBox="0 0 210 250" fill="none" xmlns="http://www.w3.org/2000/svg">
<path d="M42.9991 140.777C44.9069 128.698 55.2779 119.688 67.6323 119.688H91.6434C113.579 119.688 131.557 115.215 145.019 105.642C158.198 96.2697 168.599 80.9074 173.475 55.8663L173.482 55.8299C173.604 55.2137 173.717 54.599 173.825 53.9827L173.829 53.9571C173.969 53.1644 174.101 52.3657 174.231 51.5438C175.666 42.3866 175.507 35.6178 174.23 30.185C172.991 24.9169 170.537 20.1975 166.265 15.3299C158.001 5.91329 141.044 0 113.827 0H33.3383L0.616211 207.512H32.4717L42.9991 140.777Z" fill="#003087"/>
<path d="M186.507 58.4053C186.829 56.7669 187.099 55.1767 187.343 53.6134C191.921 56.0375 195.847 59.0113 199 62.6046C209.429 74.4893 211.467 91.3939 207.525 111.645C198.086 160.111 165.786 176.871 124.536 176.871H118.167C113.128 176.871 108.838 180.537 108.052 185.517L107.535 188.327L99.5142 239.191L99.0959 241.355C98.3102 246.334 94.0197 250 88.981 250H46.4005C42.6275 250 39.7449 246.627 40.3321 242.899L56.1131 142.848C57.0114 137.157 61.8758 132.963 67.6358 132.963H91.6465C138.799 132.963 175.719 113.809 186.507 58.4053Z" fill="#009CDE"/>
</svg>
