<svg width="251" height="250" viewBox="0 0 251 250" fill="none" xmlns="http://www.w3.org/2000/svg">
<path d="M250.319 111.917H174.136L240.111 73.8333L227.027 51.1667L161.044 89.25L199.127 23.2917L176.461 10.2083L138.369 76.15V0H112.186V76.1583L74.0938 10.2083L51.4188 23.2917L89.5022 89.2333L23.5354 51.1667L10.4437 73.8333L76.4188 111.917H0.235352V138.092H76.4105L10.4437 176.175L23.5271 198.842L89.5105 160.758L51.4188 226.717L74.0855 239.8L112.186 173.85V250H138.369V172.217L177.161 239.383L198.419 227.117L159.619 159.933L227.011 198.833L240.103 176.167L174.136 138.083H250.311V111.917H250.319ZM125.277 160.583C120.603 160.584 115.975 159.664 111.657 157.876C107.338 156.088 103.414 153.466 100.109 150.162C96.8035 146.857 94.1814 142.934 92.3922 138.616C90.6031 134.298 89.6819 129.67 89.6814 124.996C89.6808 120.322 90.6009 115.694 92.389 111.375C94.1772 107.057 96.7984 103.133 100.103 99.8275C103.408 96.5221 107.331 93.9 111.649 92.1108C115.967 90.3217 120.595 89.4005 125.269 89.4C134.708 89.3989 143.762 93.1477 150.437 99.8216C157.113 106.496 160.864 115.548 160.865 124.987C160.866 134.427 157.117 143.48 150.443 150.156C143.769 156.831 134.717 160.582 125.277 160.583Z" fill="#625DF5"/>
</svg>
