<svg width="331" height="250" viewBox="0 0 331 250" fill="none" xmlns="http://www.w3.org/2000/svg">
<path d="M280.57 20.9999C259.07 11.1667 236.237 3.99997 212.404 0C209.403 5.1667 206.07 12.1666 203.736 17.6666C178.387 13.9999 153.22 13.9999 128.22 17.6666C125.887 12.1666 122.386 5.1667 119.553 0C95.5534 3.99997 72.72 11.1667 51.3701 20.9999C8.20356 84.6664 -3.46313 146.833 2.3702 208.166C31.0368 228.999 58.7037 241.666 85.887 250C92.5537 241 98.5537 231.332 103.72 221.166C93.8871 217.5 84.5537 212.999 75.5537 207.666C77.8871 206 80.2205 204.167 82.3872 202.333C136.72 227.167 195.57 227.167 249.236 202.333C251.57 204.167 253.737 206 256.07 207.666C247.07 212.999 237.737 217.5 227.903 221.166C233.07 231.332 239.07 241 245.736 250C272.903 241.666 300.737 228.999 329.253 208.166C336.419 137.167 317.903 75.5003 280.57 20.9999ZM111.22 170.333C94.8868 170.333 81.5535 155.5 81.5535 137.333C81.5535 119.167 94.5534 104.333 111.22 104.333C127.72 104.333 141.22 119.167 140.886 137.333C140.886 155.5 127.72 170.333 111.22 170.333ZM220.737 170.333C204.403 170.333 191.053 155.5 191.053 137.333C191.053 119.167 204.07 104.333 220.737 104.333C237.237 104.333 250.737 119.167 250.403 137.333C250.403 155.5 237.404 170.333 220.737 170.333Z" fill="#5865F2"/>
</svg>
