<svg width="228" height="250" viewBox="0 0 228 250" fill="none" xmlns="http://www.w3.org/2000/svg">
<path d="M81.3733 51.7919C77.4765 50.7477 73.4711 53.0603 72.4269 56.9571C71.3828 60.8539 73.6953 64.8594 77.5921 65.9035L176.374 92.372C180.271 93.4161 184.276 91.1036 185.32 87.2068C186.364 83.3099 184.052 79.3045 180.155 78.2603L81.3733 51.7919Z" fill="#151515"/>
<path d="M70.0291 94.1273C66.1323 93.0832 62.1268 95.3957 61.0827 99.2926C60.0385 103.189 62.3511 107.195 66.2479 108.239L165.03 134.707C168.926 135.752 172.932 133.439 173.976 129.542C175.02 125.645 172.708 121.64 168.811 120.596L70.0291 94.1273Z" fill="#151515"/>
<path d="M49.7397 141.628C50.7839 137.731 54.7893 135.419 58.6862 136.463L115.133 151.588C119.03 152.632 121.342 156.637 120.298 160.534C119.254 164.431 115.248 166.743 111.352 165.699L54.9049 150.574C51.0081 149.53 48.6956 145.525 49.7397 141.628Z" fill="#151515"/>
<path fill-rule="evenodd" clip-rule="evenodd" d="M116.876 8.03081L170.074 22.2851C193.783 28.6382 205.638 31.8147 213.458 38.8555C220.336 45.0487 225.077 53.2605 227.002 62.3139C229.189 72.6062 226.013 84.4611 219.66 108.171L197.095 192.383C190.742 216.093 187.566 227.948 180.525 235.767C174.332 242.646 166.12 247.387 157.066 249.311C146.774 251.499 134.919 248.322 111.209 241.969L58.0115 227.715C34.3017 221.362 22.4468 218.185 14.6272 211.145C7.74894 204.951 3.00787 196.74 1.08351 187.686C-1.1042 177.394 2.07232 165.539 8.42534 141.829L30.9899 57.617C37.3429 33.9072 40.5194 22.0523 47.5602 14.2327C53.7534 7.35441 61.9652 2.61333 71.0186 0.688976C81.311 -1.49873 93.1659 1.67779 116.876 8.03081ZM72.4269 56.9571C73.4711 53.0603 77.4765 50.7477 81.3733 51.7919L180.155 78.2603C184.052 79.3045 186.364 83.3099 185.32 87.2068C184.276 91.1036 180.271 93.4161 176.374 92.372L77.5921 65.9035C73.6953 64.8594 71.3828 60.8539 72.4269 56.9571ZM61.0827 99.2926C62.1268 95.3957 66.1323 93.0832 70.0291 94.1273L168.811 120.596C172.708 121.64 175.02 125.645 173.976 129.542C172.932 133.439 168.926 135.752 165.03 134.707L66.2479 108.239C62.3511 107.195 60.0385 103.189 61.0827 99.2926ZM58.6862 136.463C54.7893 135.419 50.7839 137.731 49.7397 141.628C48.6956 145.525 51.0081 149.53 54.9049 150.574L111.352 165.699C115.248 166.743 119.254 164.431 120.298 160.534C121.342 156.637 119.03 152.632 115.133 151.588L58.6862 136.463Z" fill="white"/>
</svg>
