<svg width="251" height="250" viewBox="0 0 251 250" fill="none" xmlns="http://www.w3.org/2000/svg">
<path fill-rule="evenodd" clip-rule="evenodd" d="M125.505 60.8109C90.0539 60.8109 61.3157 89.5491 61.3157 125C61.3157 160.451 90.0539 189.189 125.505 189.189C160.956 189.189 189.694 160.451 189.694 125C189.694 89.5491 160.956 60.8109 125.505 60.8109ZM125.505 166.667C102.493 166.667 83.8382 148.012 83.8382 125C83.8382 101.988 102.493 83.3333 125.505 83.3333C148.517 83.3333 167.172 101.988 167.172 125C167.172 148.012 148.517 166.667 125.505 166.667Z" fill="#C13584"/>
<path d="M192.23 73.2746C200.514 73.2746 207.23 66.5592 207.23 58.2748C207.23 49.9905 200.514 43.2746 192.23 43.2746C183.946 43.2746 177.23 49.9905 177.23 58.2748C177.23 66.5592 183.946 73.2746 192.23 73.2746Z" fill="#C13584"/>
<path fill-rule="evenodd" clip-rule="evenodd" d="M125.505 0C91.5569 0 87.3001 0.143895 73.9675 0.752221C60.6628 1.35906 51.5761 3.47233 43.6251 6.56259C35.4053 9.75655 28.4343 14.0307 21.4847 20.9798C14.5356 27.9294 10.2614 34.9004 7.06747 43.1203C3.97721 51.0712 1.86394 60.1579 1.2571 73.4627C0.648777 86.7952 0.504883 91.052 0.504883 125C0.504883 158.948 0.648777 163.205 1.2571 176.537C1.86394 189.842 3.97721 198.929 7.06747 206.88C10.2614 215.1 14.5356 222.071 21.4847 229.02C28.4343 235.969 35.4053 240.243 43.6251 243.438C51.5761 246.528 60.6628 248.641 73.9675 249.248C87.3001 249.856 91.5569 250 125.505 250C159.453 250 163.71 249.856 177.042 249.248C190.347 248.641 199.434 246.528 207.385 243.438C215.605 240.243 222.575 235.969 229.525 229.02C236.474 222.071 240.748 215.1 243.943 206.88C247.033 198.929 249.146 189.842 249.753 176.537C250.361 163.205 250.505 158.948 250.505 125C250.505 91.052 250.361 86.7952 249.753 73.4627C249.146 60.1579 247.033 51.0712 243.943 43.1203C240.748 34.9004 236.474 27.9294 229.525 20.9798C222.575 14.0307 215.605 9.75655 207.385 6.56259C199.434 3.47233 190.347 1.35906 177.042 0.752221C163.71 0.143895 159.453 0 125.505 0ZM125.505 22.5225C158.881 22.5225 162.835 22.65 176.016 23.2514C188.203 23.8071 194.822 25.8435 199.226 27.5553C205.061 29.8229 209.225 32.5316 213.599 36.906C217.973 41.2799 220.682 45.4439 222.95 51.2786C224.661 55.6832 226.698 62.3019 227.254 74.4893C227.855 87.67 227.982 91.6237 227.982 125C227.982 158.376 227.855 162.33 227.254 175.511C226.698 187.698 224.661 194.317 222.95 198.721C220.682 204.556 217.973 208.72 213.599 213.094C209.225 217.468 205.061 220.177 199.226 222.445C194.822 224.157 188.203 226.193 176.016 226.749C162.837 227.35 158.884 227.478 125.505 227.478C92.1261 227.478 88.1734 227.35 74.9942 226.749C62.8068 226.193 56.1881 224.157 51.7835 222.445C45.9488 220.177 41.7848 217.468 37.4109 213.094C33.037 208.72 30.3278 204.556 28.0602 198.721C26.3484 194.317 24.312 187.698 23.7563 175.511C23.1549 162.33 23.0274 158.376 23.0274 125C23.0274 91.6237 23.1549 87.67 23.7563 74.4893C24.312 62.3019 26.3484 55.6832 28.0602 51.2786C30.3278 45.4439 33.0365 41.2799 37.4109 36.906C41.7848 32.5316 45.9488 29.8229 51.7835 27.5553C56.1881 25.8435 62.8068 23.8071 74.9942 23.2514C88.1749 22.65 92.1285 22.5225 125.505 22.5225Z" fill="#C13584"/>
</svg>
