<svg width="276" height="250" viewBox="0 0 276 250" fill="none" xmlns="http://www.w3.org/2000/svg">
<path fill-rule="evenodd" clip-rule="evenodd" d="M2.0759 87.0092L57.9733 11.1311C58.545 10.3569 59.2708 9.70929 60.1049 9.22919C60.9391 8.74909 61.8636 8.44685 62.8203 8.34149L137.478 0.0423217C137.988 -0.0141072 138.502 -0.0141072 139.012 0.0423217L213.67 8.33277C214.627 8.43813 215.551 8.74038 216.385 9.22047C217.22 9.70057 217.945 10.3481 218.517 11.1224L274.423 87.0092C275.358 88.2831 275.833 89.8369 275.77 91.416C275.707 92.9951 275.109 94.5058 274.074 95.7007L142.212 248.189C141.721 248.757 141.113 249.213 140.43 249.526C139.747 249.838 139.005 250 138.254 250C137.503 250 136.761 249.838 136.078 249.526C135.395 249.213 134.787 248.757 134.296 248.189L2.40717 95.7007C1.37418 94.5048 0.777957 92.9935 0.716188 91.4145C0.654419 89.8354 1.13948 88.2822 2.0759 87.0092ZM157.476 22.4727L210.192 72.2677C210.703 72.7517 211.348 73.0698 212.043 73.1802C212.738 73.2906 213.45 73.1882 214.086 72.8864C214.721 72.5846 215.251 72.0975 215.604 71.4892C215.958 70.8809 216.12 70.1799 216.067 69.4781L213.539 34.1369C213.504 33.7045 213.631 33.2745 213.896 32.9308C214.16 32.587 214.543 32.3543 214.971 32.278C215.398 32.2018 215.838 32.2874 216.205 32.5183C216.572 32.7492 216.84 33.1088 216.957 33.5267L228.516 73.9938C228.905 75.3565 229.621 76.6037 230.6 77.6275C231.58 78.6514 232.795 79.4209 234.139 79.8695L258.81 88.0902C259.204 88.2196 259.538 88.4849 259.754 88.8385C259.97 89.1922 260.052 89.6111 259.987 90.0203C259.922 90.4295 259.714 90.8021 259.399 91.0714C259.084 91.3407 258.684 91.4892 258.269 91.4901H234.558C233.092 91.4909 231.65 91.8612 230.366 92.5667C229.081 93.2722 227.996 94.2901 227.209 95.5263L162.576 197.087C162.214 197.641 161.656 198.037 161.014 198.196C160.371 198.355 159.693 198.264 159.115 197.942C158.536 197.621 158.102 197.092 157.898 196.462C157.694 195.833 157.737 195.149 158.017 194.55L204.342 99.0047C204.729 98.2071 204.907 97.3242 204.86 96.439C204.812 95.5537 204.54 94.6951 204.069 93.9438C203.599 93.1925 202.945 92.5732 202.169 92.144C201.393 91.7148 200.521 91.4898 199.635 91.4901H76.8557C75.9691 91.4898 75.0971 91.7148 74.3213 92.144C73.5456 92.5732 72.8917 93.1925 72.4211 93.9438C71.9504 94.6951 71.6785 95.5537 71.6307 96.439C71.583 97.3242 71.761 98.2071 72.1482 99.0047L118.474 194.55C118.765 195.15 118.815 195.839 118.615 196.476C118.414 197.113 117.978 197.648 117.395 197.974C116.812 198.299 116.127 198.389 115.48 198.226C114.833 198.063 114.273 197.658 113.914 197.095L49.2818 95.5351C48.4951 94.2959 47.4083 93.2755 46.1221 92.5684C44.8359 91.8613 43.3919 91.4904 41.9242 91.4901H17.4887C17.0744 91.4892 16.6739 91.3407 16.3591 91.0714C16.0443 90.8021 15.8357 90.4295 15.7707 90.0203C15.7056 89.6111 15.7884 89.1922 16.0042 88.8385C16.2199 88.4849 16.5546 88.2196 16.9482 88.0902L42.299 79.8521C43.6575 79.4095 44.8864 78.6397 45.8776 77.6106C46.8687 76.5814 47.5917 75.3244 47.9829 73.9502L59.5338 33.5267C59.6501 33.1088 59.9181 32.7492 60.2854 32.5183C60.6527 32.2874 61.0928 32.2018 61.5199 32.278C61.9469 32.3543 62.3302 32.587 62.5949 32.9308C62.8595 33.2745 62.9865 33.7045 62.9511 34.1369L60.423 69.4781C60.3709 70.1799 60.5323 70.8809 60.886 71.4892C61.2397 72.0975 61.7692 72.5846 62.4049 72.8864C63.0405 73.1882 63.7526 73.2906 64.4476 73.1802C65.1425 73.0698 65.7878 72.7517 66.2986 72.2677L119.014 22.4727C119.333 22.1511 119.764 21.966 120.216 21.9565C120.669 21.947 121.107 22.1139 121.439 22.4218C121.771 22.7298 121.97 23.1547 121.994 23.6067C122.018 24.0587 121.865 24.5024 121.568 24.8439L86.201 68.371C85.7862 68.8823 85.5246 69.5006 85.4466 70.1543C85.3685 70.8081 85.4771 71.4705 85.7598 72.0651C86.0425 72.6597 86.4878 73.1622 87.0441 73.5143C87.6004 73.8664 88.2451 74.0538 88.9035 74.0549H187.587C188.245 74.0538 188.89 73.8664 189.446 73.5143C190.003 73.1622 190.448 72.6597 190.731 72.0651C191.013 71.4705 191.122 70.8081 191.044 70.1543C190.966 69.5006 190.704 68.8823 190.289 68.371L154.922 24.8439C154.625 24.5024 154.472 24.0587 154.496 23.6067C154.521 23.1547 154.72 22.7298 155.051 22.4218C155.383 22.1139 155.822 21.947 156.274 21.9565C156.727 21.966 157.158 22.1511 157.476 22.4727Z" fill="#F5A925"/>
<path d="M157.476 22.4727L210.192 72.2677C210.703 72.7517 211.348 73.0698 212.043 73.1802C212.738 73.2906 213.45 73.1882 214.086 72.8864C214.721 72.5846 215.251 72.0975 215.604 71.4892C215.958 70.8809 216.12 70.1799 216.067 69.4781L213.539 34.1369C213.504 33.7045 213.631 33.2745 213.896 32.9308C214.16 32.587 214.543 32.3543 214.971 32.278C215.398 32.2018 215.838 32.2874 216.205 32.5183C216.572 32.7492 216.84 33.1088 216.957 33.5267L228.516 73.9938C228.905 75.3565 229.621 76.6037 230.6 77.6275C231.58 78.6514 232.795 79.4209 234.139 79.8695L258.81 88.0902C259.204 88.2196 259.538 88.4849 259.754 88.8385C259.97 89.1922 260.052 89.6111 259.987 90.0203C259.922 90.4295 259.714 90.8021 259.399 91.0714C259.084 91.3407 258.684 91.4892 258.269 91.4901H234.558C233.092 91.4909 231.65 91.8612 230.366 92.5667C229.081 93.2722 227.996 94.2901 227.209 95.5263L162.576 197.087C162.214 197.641 161.656 198.037 161.014 198.196C160.371 198.355 159.693 198.264 159.115 197.942C158.536 197.621 158.102 197.092 157.898 196.462C157.694 195.833 157.737 195.149 158.017 194.55L204.342 99.0047C204.729 98.2071 204.907 97.3242 204.86 96.439C204.812 95.5537 204.54 94.6951 204.069 93.9438C203.599 93.1925 202.945 92.5732 202.169 92.144C201.393 91.7148 200.521 91.4898 199.635 91.4901H76.8557C75.9691 91.4898 75.0971 91.7148 74.3213 92.144C73.5456 92.5732 72.8917 93.1925 72.4211 93.9438C71.9504 94.6951 71.6785 95.5537 71.6307 96.439C71.583 97.3242 71.761 98.2071 72.1482 99.0047L118.474 194.55C118.765 195.15 118.815 195.839 118.615 196.476C118.414 197.113 117.978 197.648 117.395 197.974C116.812 198.299 116.127 198.389 115.48 198.226C114.833 198.063 114.273 197.658 113.914 197.095L49.2818 95.5351C48.4951 94.2959 47.4083 93.2755 46.1221 92.5684C44.8359 91.8613 43.3919 91.4904 41.9242 91.4901H17.4887C17.0744 91.4892 16.6739 91.3407 16.3591 91.0714C16.0443 90.8021 15.8357 90.4295 15.7707 90.0203C15.7056 89.6111 15.7884 89.1922 16.0042 88.8385C16.2199 88.4849 16.5546 88.2196 16.9482 88.0902L42.299 79.8521C43.6575 79.4095 44.8864 78.6397 45.8776 77.6106C46.8687 76.5814 47.5917 75.3244 47.9829 73.9502L59.5338 33.5267C59.6501 33.1088 59.9181 32.7492 60.2854 32.5183C60.6527 32.2874 61.0928 32.2018 61.5199 32.278C61.9469 32.3543 62.3302 32.587 62.5949 32.9308C62.8595 33.2745 62.9865 33.7045 62.9511 34.1369L60.423 69.4781C60.3709 70.1799 60.5323 70.8809 60.886 71.4892C61.2397 72.0975 61.7692 72.5846 62.4049 72.8864C63.0405 73.1882 63.7526 73.2906 64.4476 73.1802C65.1425 73.0698 65.7878 72.7517 66.2986 72.2677L119.014 22.4727C119.333 22.1511 119.764 21.966 120.216 21.9565C120.669 21.947 121.107 22.1139 121.439 22.4218C121.771 22.7298 121.97 23.1547 121.994 23.6067C122.018 24.0587 121.865 24.5024 121.568 24.8439L86.201 68.371C85.7862 68.8823 85.5246 69.5006 85.4466 70.1543C85.3685 70.8081 85.4771 71.4705 85.7598 72.0651C86.0425 72.6597 86.4878 73.1622 87.0441 73.5143C87.6004 73.8664 88.2451 74.0538 88.9035 74.0549H187.587C188.245 74.0538 188.89 73.8664 189.446 73.5143C190.003 73.1622 190.448 72.6597 190.731 72.0651C191.013 71.4705 191.122 70.8081 191.044 70.1543C190.966 69.5006 190.704 68.8823 190.289 68.371L154.922 24.8439C154.625 24.5024 154.472 24.0587 154.496 23.6067C154.521 23.1547 154.72 22.7298 155.051 22.4218C155.383 22.1139 155.822 21.947 156.274 21.9565C156.727 21.966 157.158 22.1511 157.476 22.4727Z" fill="black"/>
</svg>
