<svg width="251" height="250" viewBox="0 0 251 250" fill="none" xmlns="http://www.w3.org/2000/svg">
<path fill-rule="evenodd" clip-rule="evenodd" d="M125.394 250C194.432 250 250.394 194.038 250.394 125C250.394 55.9625 194.432 0 125.394 0C56.3569 0 0.394531 55.9625 0.394531 125C0.394531 194.038 56.3569 250 125.394 250ZM81.6444 62.5H142.063C153.666 62.5 164.794 67.1094 172.999 75.3141C181.204 83.5188 185.813 94.6468 185.813 106.25C185.813 117.853 181.204 128.981 172.999 137.186C164.794 145.391 153.666 150 142.063 150H106.644V187.5H81.6444V62.5ZM142.063 125H106.644V87.5H142.063C147.036 87.5 151.805 89.4754 155.321 92.9917C158.838 96.5081 160.813 101.277 160.813 106.25C160.813 111.223 158.838 115.992 155.321 119.508C151.805 123.025 147.036 125 142.063 125Z" fill="#DA552F"/>
<path fill-rule="evenodd" clip-rule="evenodd" d="M142.063 62.5H81.6444V187.5H106.644V150H142.063C153.666 150 164.794 145.391 172.999 137.186C181.204 128.981 185.813 117.853 185.813 106.25C185.813 94.6468 181.204 83.5188 172.999 75.3141C164.794 67.1094 153.666 62.5 142.063 62.5ZM106.644 125H142.063C147.036 125 151.805 123.025 155.321 119.508C158.838 115.992 160.813 111.223 160.813 106.25C160.813 101.277 158.838 96.5081 155.321 92.9917C151.805 89.4754 147.036 87.5 142.063 87.5H106.644V125Z" fill="white"/>
</svg>
