<svg width="304" height="250" viewBox="0 0 304 250" fill="none" xmlns="http://www.w3.org/2000/svg">
<path fill-rule="evenodd" clip-rule="evenodd" d="M76.3163 100.184C80.3987 113.72 85.3405 126.416 90.712 138.663C99.951 160.598 106.182 172.201 114.796 186.597L115.751 188.157C126.031 204.959 137.522 223.739 156.069 236.034C170.035 245.273 187.028 250 203.358 250C226.367 250 246.134 239.902 258.831 228.065C271.293 216.462 287.427 194.097 287.427 150.461C287.427 136.283 293.346 123.996 298.164 113.995C298.457 113.387 298.746 112.787 299.029 112.196C299.029 111.981 299.244 111.552 299.674 110.692C301.607 106.395 303.971 100.809 303.971 95.2223C303.971 91.1399 302.897 86.413 300.103 82.3307C295.806 75.0254 288.071 72.4471 280.961 72.4471C264.417 72.4471 253.01 84.0495 247.209 95.8864L245.275 99.7539C242.911 96.3161 240.548 92.6635 238.614 89.4406C232.598 78.9124 229.16 71.822 226.152 62.7783C223.789 55.6879 221.855 47.5232 220.566 40.843C216.913 19.7672 210.897 12.8916 200.994 10.3133C193.689 8.37956 185.094 9.88358 178.844 13.9659C174.566 4.29721 167.261 0 157.573 0C143.822 0 131.34 9.02414 131.34 24.2988C131.34 25.9276 131.493 27.5565 131.669 29.4421C131.702 29.7951 131.736 30.1571 131.77 30.5297C130.051 30.1 128.117 29.8851 126.184 29.8851C111.358 29.8851 100.381 40.1985 100.381 54.1839C100.381 57.4068 100.81 61.0594 101.885 65.3567C100.596 65.1418 99.3064 65.1418 98.0172 65.1418C90.712 65.5715 84.0513 68.3647 79.3048 74.1659C74.5974 79.7523 72.6637 88.3467 76.3163 100.184ZM157.573 12.9111C151.342 12.9111 143.822 16.134 143.822 24.2987C143.822 29.6703 145.326 37.6201 146.83 44.0464C148.699 48.5776 149.439 51.8564 150.932 58.4743C151.499 60.9854 152.174 63.9772 153.061 67.7006C154.994 75.6699 157.358 82.5455 159.721 88.5616C162.514 95.8864 165.737 102.117 170.249 110.497C172.398 114.579 173.472 114.579 178.629 111.786C182.711 109.637 188.727 107.059 193.239 105.555C185.504 88.796 179.059 74.8105 175.836 62.9932C174.976 59.5554 171.968 45.7848 171.109 39.7687C170.464 33.7526 169.82 28.596 168.316 23.0096C166.597 16.134 164.233 12.9111 157.573 12.9111ZM89.2079 82.3502C86.8444 85.3582 86.6296 90.0852 88.5633 96.3161C92.6457 109.423 97.3921 121.455 102.49 133.78C111.534 155.051 117.335 166.029 125.715 179.995L126.353 181.038C136.663 197.877 146.91 214.613 163.12 225.35C174.937 233.085 189.352 237.167 203.318 237.167C222.871 237.167 239.435 228.553 249.963 218.669C260.725 208.786 274.476 189.429 274.476 150.52C274.476 133.59 281.447 118.773 286.198 108.675C286.451 108.136 286.699 107.61 286.938 107.098L287.133 106.711C288.488 104.011 291.021 98.9639 291.021 95.2809C291.021 93.562 290.591 91.1986 289.517 89.4797C287.583 86.4716 284.575 85.3973 280.922 85.3973C269.515 85.3973 262.21 93.9917 258.127 101.512C256.408 104.735 255.119 108.173 254.045 111.825C251.682 119.775 249.318 122.998 242.443 128.584C238.79 131.807 234.278 135.89 231.7 139.112C227.402 144.933 226.113 149.875 225.039 157.61C224.824 159.544 221.171 160.403 216.659 160.403C214.081 160.403 213.222 159.544 213.222 155.461C213.222 151.164 214.726 144.718 217.948 138.917C222.461 130.967 227.402 126.67 232.344 122.588C237.286 118.505 238.79 116.786 239.649 114.208C235.137 108.173 230.84 101.942 227.402 95.9255C221.171 84.9676 217.089 76.7834 213.866 66.8998C211.288 59.1453 209.139 50.1211 207.85 43.0307C205.272 27.971 202.693 24.1035 197.752 22.8143C193.669 21.74 188.298 22.8143 185.29 25.3926C182.926 27.5412 182.067 29.2601 182.711 33.987C183.786 44.3199 185.505 52.2697 187.438 59.7898C191.249 74.6697 197.206 86.8058 201.295 95.1373L201.297 95.1413C202.049 96.6728 202.737 98.0759 203.338 99.3437C204.627 102.137 205.701 103.211 207.85 102.996C208.4 102.957 208.907 102.918 209.38 102.881C211.494 102.717 212.931 102.606 214.511 102.781C217.089 102.996 219.023 104.5 219.023 107.079C219.023 109.227 217.948 110.087 214.081 110.946C206.131 112.665 196.013 115.458 186.13 121.045C177.73 125.791 170.425 131.592 163.765 139.972C163.12 140.831 162.475 141.261 161.401 141.261C159.897 141.261 158.608 139.542 157.319 137.823C156.03 136.104 155.17 134.815 155.17 133.526C155.17 132.022 155.815 130.733 157.319 128.799C158.18 127.625 159.098 126.565 159.917 125.619C161.346 123.968 162.475 122.665 162.475 121.709C162.475 120.985 161.598 119.579 160.5 117.82C159.968 116.967 159.384 116.03 158.823 115.048C156.03 109.891 151.303 99.5586 148.08 91.8236C143.138 80.0063 139.7 64.9465 137.766 55.7075C135.403 45.6091 131.75 42.8159 126.164 42.8159C118.429 42.8159 113.272 47.3279 113.272 54.2035C113.272 58.7351 114.776 64.7513 117.784 74.6349C119.718 81.0805 121.652 87.5265 123.371 92.0385C126.164 99.793 129.602 108.387 132.61 115.263C134.841 120.24 137.894 125.902 140.018 129.841L140.024 129.852C140.557 130.84 141.031 131.719 141.419 132.452C141.526 132.645 141.642 132.851 141.764 133.068C142.861 135.017 144.427 137.802 144.427 139.542C144.427 142.98 141.849 144.914 138.411 144.914C136.477 144.914 134.758 144.054 132.825 141.046C130.461 137.589 125.304 127.49 121.652 119.97C118.859 113.739 114.132 102.547 111.768 94.8121C107.901 82.5651 105.322 77.8381 98.6618 78.053C94.7943 78.2678 91.5714 79.557 89.2079 82.3502Z" fill="black"/>
<path d="M16.2168 44.0202C23.2543 48.242 43.3062 60.271 50.3183 62.4854C54.0295 63.6573 55.9828 62.6026 58.0728 58.4811C60.1628 54.3597 60.7097 52.6994 56.725 49.4961C52.6036 46.1755 31.0199 29.3773 24.9061 26.1935C19.6323 23.4589 16.0773 24.5136 12.8739 30.5688C9.26037 37.4248 9.92448 40.2375 15.1202 43.3628C15.4375 43.5527 15.8053 43.7733 16.2168 44.0202Z" fill="black"/>
<path d="M46.978 117.021C40.4931 117.197 13.5574 116.044 7.40458 115.439C2.05259 114.911 -0.115545 112.548 0.470438 104.793C1.09549 96.4724 4.33793 95.9645 9.59225 96.4724C15.6865 97.0583 43.9114 101.649 48.4039 103.035C53.0527 104.481 53.6973 106.59 53.1308 110.653C52.4081 115.927 50.0251 116.923 46.978 117.021Z" fill="black"/>
<path d="M32.7386 185.679C38.1882 183.667 62.3112 171.029 66.8624 168.216C70.9838 165.657 72.312 163.724 70.3782 158.899C68.6203 154.504 66.081 153.274 62.4284 154.25C57.2327 155.657 34.8677 163.743 29.4766 165.833C23.3824 168.197 19.1047 170.345 22.1518 179.428C24.6325 186.772 28.8516 187.124 32.7386 185.679Z" fill="black"/>
<path d="M88.5633 96.3161C86.6296 90.0852 86.8444 85.3582 89.2079 82.3502C91.5714 79.557 94.7943 78.2678 98.6618 78.053C105.322 77.8381 107.901 82.5651 111.768 94.8121C114.132 102.547 118.859 113.739 121.652 119.97C125.304 127.49 130.461 137.589 132.825 141.046C134.758 144.054 136.477 144.914 138.411 144.914C141.849 144.914 144.427 142.98 144.427 139.542C144.427 137.802 142.861 135.017 141.764 133.068C141.642 132.851 141.526 132.645 141.419 132.452C141.031 131.719 140.557 130.84 140.024 129.852L140.018 129.841C137.894 125.902 134.841 120.24 132.61 115.263C129.602 108.387 126.164 99.793 123.371 92.0385C121.652 87.5265 119.718 81.0805 117.784 74.6349C114.776 64.7513 113.272 58.7351 113.272 54.2035C113.272 47.3279 118.429 42.8159 126.164 42.8159C131.75 42.8159 135.403 45.6091 137.766 55.7075C139.7 64.9465 143.138 80.0063 148.08 91.8236C151.303 99.5586 156.03 109.891 158.823 115.048C159.384 116.03 159.968 116.967 160.5 117.82C161.598 119.579 162.475 120.985 162.475 121.709C162.475 122.665 161.346 123.968 159.917 125.619C159.098 126.565 158.18 127.625 157.319 128.799C155.815 130.733 155.17 132.022 155.17 133.526C155.17 134.815 156.03 136.104 157.319 137.823C158.608 139.542 159.897 141.261 161.401 141.261C162.475 141.261 163.12 140.831 163.765 139.972C170.425 131.592 177.73 125.791 186.13 121.045C196.013 115.458 206.131 112.665 214.081 110.946C217.948 110.087 219.023 109.227 219.023 107.079C219.023 104.5 217.089 102.996 214.511 102.781C212.931 102.606 211.494 102.717 209.38 102.881C208.907 102.918 208.4 102.957 207.85 102.996C205.701 103.211 204.627 102.137 203.338 99.3437C202.737 98.0759 202.049 96.6728 201.297 95.1413L201.295 95.1373C197.206 86.8058 191.249 74.6697 187.438 59.7898C185.505 52.2697 183.786 44.3199 182.711 33.987C182.067 29.2601 182.926 27.5412 185.29 25.3926C188.298 22.8143 193.669 21.74 197.752 22.8143C202.693 24.1035 205.272 27.971 207.85 43.0307C209.139 50.1211 211.288 59.1453 213.866 66.8998C217.089 76.7834 221.171 84.9676 227.402 95.9255C230.84 101.942 235.137 108.173 239.649 114.208C238.79 116.786 237.286 118.505 232.344 122.588C227.402 126.67 222.461 130.967 217.948 138.917C214.726 144.718 213.222 151.164 213.222 155.461C213.222 159.544 214.081 160.403 216.659 160.403C221.171 160.403 224.824 159.544 225.039 157.61C226.113 149.875 227.402 144.933 231.7 139.112C234.278 135.89 238.79 131.807 242.443 128.584C249.318 122.998 251.682 119.775 254.045 111.825C255.119 108.173 256.408 104.735 258.127 101.512C262.21 93.9917 269.515 85.3973 280.922 85.3973C284.575 85.3973 287.583 86.4716 289.517 89.4797C290.591 91.1986 291.021 93.562 291.021 95.2809C291.021 98.9639 288.488 104.011 287.133 106.711L286.938 107.098C286.699 107.61 286.451 108.136 286.198 108.675C281.447 118.773 274.476 133.59 274.476 150.52C274.476 189.429 260.725 208.786 249.963 218.669C239.435 228.553 222.871 237.167 203.318 237.167C189.352 237.167 174.937 233.085 163.12 225.35C146.91 214.613 136.663 197.877 126.353 181.038L125.715 179.995C117.335 166.029 111.534 155.051 102.49 133.78C97.3921 121.455 92.6457 109.423 88.5633 96.3161Z" fill="#FFE450"/>
<path d="M143.822 24.2987C143.822 16.134 151.342 12.9111 157.573 12.9111C164.233 12.9111 166.597 16.134 168.316 23.0096C169.82 28.596 170.464 33.7526 171.109 39.7687C171.968 45.7848 174.976 59.5554 175.836 62.9932C179.059 74.8105 185.504 88.796 193.239 105.555C188.727 107.059 182.711 109.637 178.629 111.786C173.472 114.579 172.398 114.579 170.249 110.497C165.737 102.117 162.514 95.8864 159.721 88.5616C157.358 82.5455 154.994 75.6699 153.061 67.7006C152.174 63.9772 151.499 60.9854 150.932 58.4743C149.439 51.8564 148.699 48.5776 146.83 44.0464C145.326 37.6201 143.822 29.6703 143.822 24.2987Z" fill="#FFE450"/>
</svg>
