<svg width="297" height="250" viewBox="0 0 297 250" fill="none" xmlns="http://www.w3.org/2000/svg">
<path d="M296.087 81.8819C297.905 73.0541 296.541 63.7719 291.933 55.9827C286.74 47.2198 278.302 41.3129 268.37 39.3007C266.098 38.8463 263.697 38.5867 261.425 38.5867H261.295C244.288 38.5867 230.008 50.7898 226.633 67.4718C224.621 77.2733 220.726 86.7502 215.273 95.5131C214.963 95.9978 214.529 96.3911 214.016 96.6527C213.503 96.9143 212.93 97.0347 212.355 97.0017C211.78 96.9687 211.225 96.7833 210.745 96.4647C210.266 96.1461 209.879 95.7057 209.626 95.1886L174.315 21.1907C169.836 11.7787 161.787 4.37888 151.791 1.45791C134.655 -3.60511 116.999 4.96308 109.729 20.2819L73.2493 97.0061C72.2757 99.0183 69.4196 98.9534 68.5758 96.9412V96.8763C65.9458 90.3047 61.4023 84.6748 55.5343 80.7165C49.6663 76.7582 42.7444 74.654 35.6661 74.6769C30.9926 74.6769 26.3839 75.5856 21.97 77.4031C3.79508 84.9977 -4.31873 106.418 3.21089 124.593C10.0914 141.015 21.3858 156.529 36.0556 169.901C37.0942 170.874 37.4187 172.367 36.8345 173.665L25.0208 198.461C16.7123 215.987 23.3981 237.342 40.6642 246.105C45.7273 248.637 51.1148 249.935 56.6971 249.935C70.3283 249.935 82.921 242.016 88.7629 229.683L98.9539 208.327C99.603 206.899 101.226 206.185 102.719 206.64C115.117 210.015 127.579 211.833 139.848 211.833C153.673 211.833 167.305 209.756 180.481 205.926C181.216 205.71 182.004 205.761 182.705 206.07C183.406 206.379 183.975 206.926 184.311 207.613L194.372 228.774C200.344 241.367 212.807 249.935 226.698 250C232.345 250 237.797 248.767 242.925 246.17C260.256 237.407 266.877 215.987 258.569 198.396L245.911 171.783C245.327 170.485 245.587 168.992 246.625 168.018C271.161 145.17 289.271 115.246 296.087 81.8819ZM77.144 224.036C75.3036 227.9 72.4065 231.164 68.7879 233.45C65.1693 235.736 60.9773 236.951 56.6971 236.953C53.3218 236.953 49.8815 236.174 46.7009 234.616C35.5363 229.099 31.3171 215.208 36.7047 203.979L46.5062 183.402C47.35 181.584 49.6868 180.935 51.2447 182.104C53.3218 183.597 55.4638 185.025 57.6708 186.453C66.3039 191.97 75.3265 196.644 84.6087 200.473C86.3612 201.187 87.1402 203.135 86.3612 204.822L77.144 224.036ZM139.848 198.786C87.8542 198.786 32.9399 163.539 14.765 118.556C12.5201 113.004 12.5719 106.788 14.9089 101.274C17.2459 95.7601 21.6769 91.3999 27.2278 89.1519C30.0189 88.0484 32.875 87.4642 35.6661 87.4642C44.6238 87.4642 53.0622 92.7869 56.6322 101.615C67.9916 129.786 106.094 153.608 139.848 153.608C145.04 153.608 150.233 153.089 155.361 152.18C156.789 151.92 158.217 152.634 158.866 153.933L175.873 189.763C176.717 191.581 175.743 193.723 173.861 194.242C162.761 197.163 151.402 198.786 139.848 198.786ZM132.448 137.9L140.302 121.412C140.951 120.114 142.833 120.114 143.482 121.412L151.142 137.51C151.661 138.549 150.947 139.847 149.844 140.042C146.533 140.496 143.223 140.756 139.977 140.756C137.965 140.756 135.953 140.626 133.941 140.431C132.578 140.236 131.928 138.938 132.448 137.9ZM236.954 234.551C234.264 235.878 231.338 236.657 228.344 236.843C225.351 237.029 222.351 236.617 219.518 235.633C216.685 234.648 214.076 233.11 211.843 231.108C209.61 229.106 207.797 226.68 206.511 223.971L144.911 94.4746C143.677 91.8782 139.977 91.8782 138.809 94.4746L119.725 134.654C119.011 136.147 117.324 136.861 115.766 136.342C102.784 131.863 90.4506 124.268 81.2982 115.116C80.8326 114.648 80.5257 114.045 80.4209 113.393C80.3161 112.741 80.4186 112.072 80.714 111.481L121.997 24.6309C123.425 21.5802 125.632 18.8539 128.423 16.9715C141.405 8.46824 156.594 13.7909 162.242 25.6695L246.95 203.849C252.272 215.143 248.118 229.034 236.954 234.551ZM219.103 115.376C218.844 114.833 218.743 114.229 218.812 113.632C218.881 113.035 219.117 112.469 219.493 112C229.164 99.6025 236.24 85.1275 239.29 69.7437C241.432 59.0335 250.844 51.5688 261.425 51.5688C263.242 51.5688 265.06 51.7635 266.942 52.2179C278.951 55.2038 285.896 67.6666 283.365 79.8048C277.393 108.236 262.593 134.005 242.406 154.192C240.783 155.815 238.122 155.361 237.148 153.348L219.103 115.376Z" fill="#FA4531"/>
<path d="M236.954 234.551C234.264 235.878 231.338 236.657 228.344 236.843C225.351 237.029 222.351 236.617 219.518 235.633C216.685 234.648 214.076 233.11 211.843 231.108C209.61 229.106 207.797 226.68 206.511 223.971L144.911 94.4746C143.677 91.8782 139.977 91.8782 138.809 94.4746L119.725 134.654C119.011 136.147 117.324 136.861 115.766 136.342C102.784 131.863 90.4506 124.268 81.2982 115.116C80.8326 114.648 80.5257 114.045 80.4209 113.393C80.3161 112.741 80.4186 112.072 80.714 111.481L121.997 24.6309C123.425 21.5802 125.632 18.8539 128.423 16.9715C141.405 8.46824 156.594 13.7909 162.242 25.6695L246.95 203.849C252.272 215.143 248.118 229.034 236.954 234.551Z" fill="#F5F6DC"/>
<path d="M219.103 115.376C218.844 114.833 218.743 114.229 218.812 113.632C218.881 113.035 219.117 112.469 219.493 112C229.164 99.6025 236.24 85.1275 239.29 69.7437C241.432 59.0335 250.844 51.5688 261.425 51.5688C263.242 51.5688 265.06 51.7635 266.942 52.2179C278.951 55.2038 285.896 67.6666 283.365 79.8048C277.393 108.236 262.593 134.005 242.406 154.192C240.783 155.815 238.122 155.361 237.148 153.348L219.103 115.376Z" fill="#F5F6DC"/>
<path d="M139.848 198.786C87.8542 198.786 32.9399 163.539 14.765 118.556C12.5201 113.004 12.5719 106.788 14.9089 101.274C17.2459 95.7601 21.6769 91.3999 27.2278 89.1519C30.0189 88.0484 32.875 87.4642 35.6661 87.4642C44.6238 87.4642 53.0622 92.7869 56.6322 101.615C67.9916 129.786 106.094 153.608 139.848 153.608C145.04 153.608 150.233 153.089 155.361 152.18C156.789 151.92 158.217 152.634 158.866 153.933L175.873 189.763C176.717 191.581 175.743 193.723 173.861 194.242C162.761 197.163 151.402 198.786 139.848 198.786Z" fill="#F5F6DC"/>
<path d="M77.144 224.036C75.3036 227.9 72.4065 231.164 68.7879 233.45C65.1693 235.736 60.9773 236.951 56.6971 236.953C53.3218 236.953 49.8815 236.174 46.7009 234.616C35.5363 229.099 31.3171 215.208 36.7047 203.979L46.5062 183.402C47.35 181.584 49.6868 180.935 51.2447 182.104C53.3218 183.597 55.4638 185.025 57.6708 186.453C66.3039 191.97 75.3265 196.644 84.6087 200.473C86.3612 201.187 87.1402 203.135 86.3612 204.822L77.144 224.036Z" fill="#F5F6DC"/>
</svg>
