<svg width="251" height="250" viewBox="0 0 251 250" fill="none" xmlns="http://www.w3.org/2000/svg">
<path d="M0.394531 125C0.394531 178.365 33.8424 223.927 80.9154 241.854C79.7695 232.094 78.5508 216 81.1758 204.708C83.4362 195 95.7695 142.854 95.7695 142.854C95.7695 142.854 92.0508 135.406 92.0508 124.375C92.0508 107.083 102.072 94.1667 114.561 94.1667C125.186 94.1667 130.311 102.135 130.311 111.688C130.311 122.365 123.509 138.323 119.999 153.125C117.072 165.51 126.217 175.615 138.426 175.615C160.54 175.615 177.551 152.292 177.551 118.625C177.551 88.8229 156.134 68 125.561 68C90.1654 68 69.3841 94.5521 69.3841 122C69.3841 132.698 73.4987 144.156 78.6445 150.396C79.0832 150.867 79.3932 151.443 79.5447 152.069C79.6961 152.695 79.6838 153.349 79.5091 153.969C78.5612 157.906 76.457 166.354 76.0508 168.083C75.4987 170.354 74.2487 170.844 71.8841 169.74C56.3424 162.51 46.6341 139.792 46.6341 121.542C46.6341 82.2813 75.1445 46.2396 128.842 46.2396C172.009 46.2396 205.561 77 205.561 118.104C205.561 160.99 178.53 195.51 140.988 195.51C128.374 195.51 116.53 188.948 112.467 181.208C112.467 181.208 106.228 204.979 104.717 210.792C101.78 222.083 93.6341 236.375 88.582 244.49C100.228 248.073 112.582 250 125.395 250C194.426 250 250.395 194.031 250.395 125C250.395 55.9688 194.426 0 125.395 0C56.3633 0 0.394531 55.9688 0.394531 125Z" fill="#E60023"/>
</svg>
