<svg width="281" height="250" viewBox="0 0 281 250" fill="none" xmlns="http://www.w3.org/2000/svg">
<path d="M280.711 127.215C280.711 110.236 266.931 96.4567 249.953 96.4567C241.587 96.4567 234.205 99.6555 228.792 105.069C207.876 90.059 178.841 80.2165 146.853 78.9862L160.878 13.2874L206.4 22.8839C206.892 34.4488 216.489 43.7992 228.3 43.7992C240.357 43.7992 250.199 33.9567 250.199 21.8996C250.199 9.84254 240.357 0 228.3 0C219.687 0 212.305 4.92126 208.861 12.3031L157.926 1.47639C156.449 1.23033 154.973 1.47638 153.743 2.21457C152.512 2.95276 151.774 4.18308 151.282 5.65946L135.78 78.9862C103.054 79.9705 73.7721 89.5669 52.6107 105.069C47.1973 99.9016 39.5693 96.4567 31.4493 96.4567C14.4709 96.4567 0.691406 110.236 0.691406 127.215C0.691406 139.764 8.0733 150.344 18.9001 155.266C18.4079 158.219 18.1619 161.417 18.1619 164.616C18.1619 211.86 73.0339 250 140.947 250C208.861 250 263.733 211.86 263.733 164.616C263.733 161.417 263.487 158.465 262.994 155.512C273.083 150.591 280.711 139.764 280.711 127.215ZM70.3272 149.114C70.3272 137.057 80.1697 127.215 92.2268 127.215C104.284 127.215 114.126 137.057 114.126 149.114C114.126 161.171 104.284 171.014 92.2268 171.014C80.1697 171.014 70.3272 161.171 70.3272 149.114ZM192.62 206.939C177.611 221.949 149.067 222.933 140.701 222.933C132.335 222.933 103.546 221.703 88.7819 206.939C86.5673 204.724 86.5673 201.033 88.7819 198.819C90.9965 196.604 94.6874 196.604 96.902 198.819C106.252 208.169 126.43 211.614 140.947 211.614C155.465 211.614 175.396 208.169 184.993 198.819C187.207 196.604 190.898 196.604 193.113 198.819C194.835 201.28 194.835 204.724 192.62 206.939ZM188.683 171.014C176.626 171.014 166.784 161.171 166.784 149.114C166.784 137.057 176.626 127.215 188.683 127.215C200.741 127.215 210.583 137.057 210.583 149.114C210.583 161.171 200.741 171.014 188.683 171.014Z" fill="#FF4500"/>
</svg>
