<svg width="251" height="250" viewBox="0 0 251 250" fill="none" xmlns="http://www.w3.org/2000/svg">
<path d="M96.2984 185.567C97.204 187.137 98.5071 188.44 100.077 189.346C101.649 190.254 103.432 190.743 105.247 190.743C107.062 190.743 108.845 190.265 110.417 189.358L162.06 159.542C163.632 158.636 164.937 157.332 165.845 155.761C166.753 154.191 167.23 152.408 167.23 150.594C167.23 148.78 166.753 146.998 165.845 145.427C164.937 143.856 163.632 142.552 162.06 141.646L110.417 111.831C108.846 110.922 107.063 110.444 105.249 110.444C103.434 110.443 101.651 110.921 100.08 111.829C98.5086 112.737 97.2042 114.042 96.298 115.614C95.3918 117.187 94.9158 118.97 94.9179 120.784V180.404C94.9166 182.216 95.3928 183.997 96.2984 185.567Z" fill="#833AB4"/>
<path fill-rule="evenodd" clip-rule="evenodd" d="M46.0706 5.99412C56.415 2.08621 69.2559 0 86.3164 0H164.674C181.734 0 194.575 2.08621 204.92 5.99412C215.448 9.97133 222.683 15.5716 228.768 21.4498L229.042 21.7237C234.925 27.807 240.523 35.0415 244.498 45.569C248.402 55.9118 250.485 68.752 250.485 85.8104V164.19C250.485 181.253 248.403 194.094 244.498 204.436C240.523 214.963 234.924 222.194 229.042 228.276L228.768 228.55C222.683 234.428 215.448 240.029 204.92 244.006C194.575 247.914 181.734 250 164.674 250H86.3164C69.2559 250 56.415 247.914 46.0706 244.006C35.5427 240.029 28.3073 234.428 22.2218 228.55L21.9478 228.276C16.0667 222.194 10.4676 214.963 6.49268 204.436C2.58768 194.094 0.504883 181.253 0.504883 164.19V85.8104C0.504883 68.752 2.58781 55.9118 6.49246 45.569C10.4668 35.0415 16.0653 27.807 21.9478 21.7237L22.2218 21.4498C28.3073 15.5716 35.5427 9.97133 46.0706 5.99412ZM38.1501 37.6603C33.7784 42.2021 30.2979 46.8553 27.7533 53.5953C27.3698 54.6112 27.0023 55.6888 26.6542 56.8357H83.2138L64.6821 24.4008C60.5141 25.1609 57.0486 26.1397 54.1019 27.2529C47.3591 29.8002 42.7011 33.2844 38.1501 37.6603ZM23.2304 85.8104C23.2304 83.6193 23.269 81.5385 23.3429 79.5609H102.592C102.732 79.5635 102.873 79.5636 103.014 79.5609H174.86C175 79.5635 175.14 79.5635 175.28 79.5609H227.647C227.721 81.5385 227.76 83.6193 227.76 85.8104V164.19C227.76 179.498 225.877 189.417 223.237 196.408C220.693 203.146 217.213 207.797 212.84 212.34C208.289 216.716 203.631 220.2 196.888 222.747C189.893 225.39 179.975 227.275 164.674 227.275H86.3164C71.0157 227.275 61.0971 225.39 54.1019 222.747C47.3591 220.2 42.701 216.715 38.15 212.34C33.777 207.796 30.2971 203.146 27.7531 196.408C25.1132 189.417 23.2304 179.498 23.2304 164.19V85.8104ZM223.237 53.5953C223.62 54.6112 223.988 55.6888 224.336 56.8357H181.653L162.159 22.7252H164.674C179.975 22.7252 189.893 24.6102 196.888 27.2529C203.631 29.8001 208.289 33.2843 212.84 37.6601C217.212 42.202 220.692 46.8552 223.237 53.5953ZM89.8979 22.7252H135.984L155.478 56.8357H109.387L89.8979 22.7252Z" fill="#833AB4"/>
</svg>
