<svg width="174" height="250" viewBox="0 0 174 250" fill="none" xmlns="http://www.w3.org/2000/svg">
<path d="M155.314 58.1851L155.143 58.0842L154.746 57.9631C154.906 58.0979 155.106 58.176 155.314 58.1851Z" fill="white"/>
<path d="M155.36 58.0625C155.341 58.06 155.321 58.0552 155.302 58.0485C155.301 58.0616 155.301 58.0747 155.302 58.0877C155.324 58.0849 155.344 58.0762 155.36 58.0625Z" fill="white"/>
<path d="M157.652 75.9519L157.941 75.7871L158.048 75.7266L158.146 75.6223C157.962 75.7018 157.795 75.8134 157.652 75.9519Z" fill="white"/>
<path d="M155.797 58.5358L155.515 58.2667L155.323 58.1625C155.426 58.3442 155.596 58.4783 155.797 58.5358Z" fill="white"/>
<path d="M84.7051 231.852C84.4791 231.95 84.2815 232.102 84.1298 232.296L84.3077 232.182C84.4288 232.071 84.6009 231.94 84.7051 231.852Z" fill="white"/>
<path d="M126.019 223.726C126.019 223.47 125.895 223.518 125.925 224.426C125.925 224.352 125.955 224.278 125.969 224.208C125.986 224.046 125.999 223.887 126.019 223.726Z" fill="white"/>
<path d="M121.732 231.852C121.506 231.95 121.308 232.102 121.157 232.296L121.335 232.182C121.456 232.071 121.628 231.94 121.732 231.852Z" fill="white"/>
<path d="M55.6458 233.815C55.4745 233.666 55.2647 233.569 55.0404 233.533C55.2221 233.62 55.4036 233.708 55.5247 233.775L55.6458 233.815Z" fill="white"/>
<path d="M49.1343 227.536C49.1075 227.271 49.0262 227.014 48.8955 226.782C48.988 227.024 49.0655 227.271 49.1275 227.522L49.1343 227.536Z" fill="white"/>
<path d="M93.0478 115.449C84.0681 119.293 73.8773 123.652 60.6696 123.652C55.1445 123.64 49.6462 122.883 44.3241 121.398L53.4588 215.183C53.7821 219.103 55.5678 222.757 58.4614 225.422C61.3548 228.086 65.1445 229.565 69.0779 229.564C69.0779 229.564 82.0293 230.236 86.3511 230.236C91.0032 230.236 104.95 229.564 104.95 229.564C108.883 229.564 112.672 228.085 115.564 225.421C118.457 222.757 120.243 219.102 120.566 215.183L130.35 111.547C125.978 110.054 121.565 109.062 116.59 109.062C107.988 109.058 101.055 112.022 93.0478 115.449Z" fill="#FFDD00"/>
<path d="M16.0329 75.5086L16.1877 75.653L16.2886 75.7135C16.2108 75.6369 16.1252 75.5677 16.0329 75.5086Z" fill="white"/>
<path d="M172.599 66.8196L171.224 59.8812C169.989 53.6558 167.188 47.7734 160.797 45.5234C158.749 44.8037 156.425 44.4942 154.855 43.0043C153.284 41.5144 152.819 39.2005 152.456 37.0547C151.784 33.1163 151.152 29.1746 150.462 25.243C149.867 21.8628 149.396 18.0657 147.845 14.9648C145.827 10.8011 141.64 8.36611 137.476 6.75509C135.343 5.95864 133.166 5.28489 130.955 4.73713C120.552 1.99271 109.616 0.983729 98.9136 0.408613C86.0679 -0.300189 73.1886 -0.0866374 60.3738 1.04763C50.8355 1.91535 40.7895 2.96469 31.7255 6.26407C28.4127 7.4715 24.999 8.92101 22.4799 11.4805C19.3891 14.6251 18.3801 19.4884 20.6369 23.4099C22.2411 26.1948 24.9587 28.1623 27.841 29.4638C31.5953 31.1409 35.5162 32.417 39.5384 33.271C50.7381 35.7464 62.3379 36.7184 73.78 37.132C86.4617 37.6439 99.1638 37.2291 111.785 35.891C114.906 35.548 118.021 35.1365 121.131 34.6567C124.794 34.0951 127.145 29.3057 126.065 25.9694C124.774 21.9806 121.303 20.4335 117.378 21.0355C116.799 21.1263 116.224 21.2104 115.646 21.2945L115.229 21.355C113.899 21.5232 112.569 21.6801 111.239 21.8259C108.493 22.1218 105.739 22.364 102.979 22.5523C96.7976 22.9828 90.5997 23.1812 84.404 23.1913C78.3169 23.1913 72.2261 23.0198 66.1519 22.6196C63.3806 22.4379 60.6159 22.207 57.8581 21.9267C56.6035 21.7956 55.3524 21.6577 54.1013 21.503L52.9107 21.3516L52.6517 21.3147L51.4174 21.1364C48.895 20.7563 46.3725 20.3191 43.877 19.7911C43.6252 19.7352 43.3999 19.5951 43.2385 19.394C43.0771 19.1928 42.9891 18.9425 42.9891 18.6846C42.9891 18.4266 43.0771 18.1764 43.2385 17.9752C43.3999 17.774 43.6252 17.6339 43.877 17.578H43.9241C46.0866 17.1173 48.266 16.7238 50.4521 16.3808C51.1809 16.2664 51.9118 16.1543 52.645 16.0444H52.6652C54.034 15.9536 55.4096 15.7081 56.7718 15.5467C68.6226 14.3139 80.5445 13.8937 92.4525 14.2888C98.2341 14.457 104.012 14.7966 109.767 15.3819C111.004 15.5097 112.236 15.6442 113.466 15.7955C113.937 15.8527 114.411 15.92 114.885 15.9772L115.841 16.115C118.625 16.5299 121.395 17.0332 124.152 17.6251C128.234 18.5131 133.478 18.8023 135.294 23.2755C135.872 24.6947 136.135 26.2721 136.454 27.762L136.861 29.6622C136.872 29.6964 136.879 29.7312 136.884 29.7665C137.847 34.2509 138.809 38.7352 139.774 43.2196C139.844 43.5508 139.846 43.8931 139.778 44.2251C139.711 44.557 139.576 44.8715 139.382 45.1489C139.187 45.4262 138.938 45.6606 138.649 45.8373C138.359 46.014 138.037 46.1293 137.702 46.1759H137.675L137.086 46.2566L136.504 46.334C134.662 46.5739 132.816 46.7981 130.969 47.0066C127.329 47.4214 123.685 47.7801 120.035 48.0828C112.781 48.686 105.513 49.0818 98.2304 49.2701C94.5197 49.3687 90.8104 49.4147 87.1019 49.408C72.3399 49.3963 57.5917 48.5384 42.9285 46.8384C41.3411 46.6501 39.7537 46.4483 38.1662 46.2431C39.3971 46.4012 37.2716 46.1221 36.8411 46.0616C35.8321 45.9203 34.8231 45.7734 33.8141 45.6209C30.4273 45.1131 27.0607 44.4875 23.6807 43.9393C19.5943 43.2667 15.6861 43.603 11.9899 45.6209C8.95586 47.2812 6.50025 49.8272 4.95062 52.9192C3.35645 56.2152 2.88219 59.8038 2.16922 63.3454C1.45619 66.8869 0.346315 70.6974 0.766723 74.3332C1.67144 82.1798 7.15693 88.5563 15.0471 89.9826C22.4699 91.3279 29.9329 92.4173 37.4162 93.3455C66.8121 96.9461 96.5096 97.3763 125.998 94.6303C128.399 94.4064 130.797 94.1614 133.192 93.8975C133.94 93.8151 134.697 93.9011 135.407 94.1498C136.117 94.3977 136.763 94.8016 137.297 95.3317C137.831 95.8618 138.24 96.505 138.493 97.213C138.747 97.9217 138.838 98.6779 138.761 99.4267L138.014 106.684C136.51 121.351 135.006 136.016 133.501 150.679C131.932 166.078 130.352 181.476 128.762 196.873C128.314 201.21 127.865 205.545 127.417 209.879C126.987 214.147 126.926 218.55 126.115 222.767C124.838 229.4 120.347 233.472 113.796 234.963C107.793 236.329 101.662 237.045 95.5062 237.101C88.682 237.139 81.8614 236.836 75.0378 236.872C67.7527 236.913 58.8301 236.24 53.2066 230.819C48.266 226.057 47.5833 218.6 46.9107 212.153C46.0138 203.617 45.1248 195.082 44.2436 186.548L36.1011 108.393C36.0473 107.885 35.9935 107.384 35.943 106.873C35.5597 103.21 32.9666 99.6251 28.8802 99.8095C25.3825 99.9649 21.407 102.938 21.8174 106.873L29.0921 176.721C30.489 190.096 31.8825 203.472 33.2726 216.851C33.5417 219.414 33.7939 221.984 34.0764 224.547C35.6135 238.551 46.3086 246.098 59.5532 248.224C67.2887 249.468 75.2128 249.724 83.0623 249.852C93.1255 250.013 103.289 250.4 113.187 248.577C127.854 245.886 138.859 236.092 140.429 220.901C140.878 216.515 141.326 212.128 141.775 207.74C143.266 193.229 144.755 178.716 146.241 164.203L153.334 95.0474C153.445 93.9697 153.901 92.9568 154.632 92.1577C155.364 91.3585 156.333 90.8167 157.397 90.6111C161.591 89.7937 165.6 88.3981 168.583 85.2065C173.332 80.125 174.277 73.499 172.599 66.8196ZM14.8319 71.508C14.8958 71.4777 14.778 72.0261 14.7277 72.2813C14.7175 71.8949 14.7377 71.5517 14.8319 71.508ZM15.2389 74.6562C15.2725 74.6321 15.3733 74.767 15.4776 74.9282C15.3195 74.7802 15.2187 74.6693 15.2354 74.6562H15.2389ZM15.639 75.1841C15.7837 75.4298 15.8611 75.5844 15.639 75.1841V75.1841ZM16.4631 75.8367C16.4631 75.8601 16.5 75.8834 16.5135 75.9075C16.4912 75.8812 16.4664 75.8579 16.4395 75.8367H16.4631ZM157.202 74.8611C155.695 76.2939 153.425 76.9596 151.182 77.2929C126.025 81.0262 100.501 82.9162 75.0677 82.082C56.8659 81.4601 38.8556 79.4388 20.8353 76.8926C19.0695 76.6439 17.1559 76.3209 15.9418 75.0193C13.6548 72.5642 14.778 67.62 15.3733 64.6536C15.9182 61.9361 16.9608 58.3139 20.1929 57.9271C25.2378 57.3352 31.0966 59.4642 36.0877 60.2209C42.0967 61.1379 48.1281 61.8722 54.1821 62.4238C80.0188 64.7781 106.289 64.4115 132.011 60.9675C136.7 60.3375 141.371 59.6054 146.026 58.7713C150.173 58.028 154.771 56.6323 157.276 60.9272C158.995 63.8532 159.224 67.768 158.958 71.0741C158.876 72.5146 158.247 73.8694 157.199 74.8611H157.202Z" fill="white"/>
</svg>
