<svg width="251" height="250" viewBox="0 0 251 250" fill="none" xmlns="http://www.w3.org/2000/svg">
<path d="M86.332 243.75V168.75H164.457V199.218C164.457 223.437 144.926 243.75 119.926 243.75H86.332Z" fill="#88CFB0"/>
<path d="M166.02 167.187V87.4998H244.145V122.656C244.145 146.875 224.614 167.187 199.614 167.187H166.02Z" fill="#F2C94C"/>
<path d="M164.457 87.4998H86.332V166.406H164.457V87.4998Z" fill="#BD83CE"/>
<path d="M6.64453 85.9375V50.7812C6.64453 26.5625 26.1757 6.25 51.1758 6.25H84.7695V85.9375H6.64453Z" fill="#40BE88"/>
<path d="M166.02 85.9375V6.25H199.614C223.832 6.25 244.145 25.7812 244.145 50.7812V85.9375H166.02Z" fill="#FF7474"/>
<path d="M164.457 6.25H86.332V85.1562H164.457V6.25Z" fill="#6776F9"/>
<path d="M6.64453 199.218V168.75H84.7695V243.75H51.1758C26.1757 243.75 6.64453 224.218 6.64453 199.218Z" fill="#37C2E2"/>
<path d="M84.7695 87.4998H6.64453V166.406H84.7695V87.4998Z" fill="#F2994A"/>
<path fill-rule="evenodd" clip-rule="evenodd" d="M0.394531 199.219V50.7812C0.394531 22.6562 23.0508 0 51.1758 0H199.614C227.739 0 250.395 22.6562 250.395 50.7812V122.656C250.395 150.781 227.739 173.437 199.614 173.437H170.707V199.219C170.707 227.344 148.051 250 119.926 250H51.1758C23.0508 250 0.394531 227.344 0.394531 199.219ZM78.5195 78.9062H13.6758V50C13.6758 29.6875 30.082 12.5 51.1758 12.5H78.5195V78.9062ZM199.614 160.937H172.27V93.7497H237.114V123.437C237.114 143.75 220.708 160.937 199.614 160.937ZM119.926 237.5H92.5817V175.781H157.426V200C157.426 220.312 141.02 237.5 119.926 237.5ZM92.5817 160.937H157.426V93.7497H92.5817V160.937ZM172.27 78.9062H237.114V50.7812C237.114 29.6875 219.926 13.2812 199.614 13.2812H172.27V78.9062ZM157.426 78.9062H92.5817V12.5H157.426V78.9062ZM12.8945 175V199.219C12.8945 220.312 30.082 236.719 50.3945 236.719H78.5195V175H12.8945ZM78.5195 160.937H12.8945V93.7497H78.5195V160.937Z" fill="#2F2F3A"/>
</svg>
