<svg width="167" height="250" viewBox="0 0 167 250" fill="none" xmlns="http://www.w3.org/2000/svg">
<path d="M83.5714 125C83.5714 113.949 87.9613 103.351 95.7753 95.5372C103.589 87.7232 114.187 83.3333 125.238 83.3333C136.289 83.3333 146.887 87.7232 154.701 95.5372C162.515 103.351 166.905 113.949 166.905 125C166.905 136.051 162.515 146.649 154.701 154.463C146.887 162.277 136.289 166.667 125.238 166.667C114.187 166.667 103.589 162.277 95.7753 154.463C87.9613 146.649 83.5714 136.051 83.5714 125Z" fill="#1ABCFE"/>
<path d="M0.238281 208.333C0.238281 197.283 4.62814 186.685 12.4421 178.871C20.2561 171.057 30.8542 166.667 41.9048 166.667H83.5714V208.333C83.5714 219.384 79.1816 229.982 71.3676 237.796C63.5536 245.61 52.9555 250 41.9048 250C30.8542 250 20.2561 245.61 12.4421 237.796C4.62814 229.982 0.238281 219.384 0.238281 208.333Z" fill="#0ACF83"/>
<path d="M83.5714 0V83.3333L125.238 83.3333C136.289 83.3333 146.887 78.9435 154.701 71.1294C162.515 63.3154 166.905 52.7174 166.905 41.6667C166.905 30.616 162.515 20.0179 154.701 12.2039C146.887 4.38987 136.289 0 125.238 0H83.5714Z" fill="#FF7262"/>
<path d="M0.238281 41.6667C0.238281 52.7174 4.62814 63.3154 12.4421 71.1294C20.2561 78.9435 30.8542 83.3333 41.9048 83.3333H83.5714V0H41.9048C30.8542 0 20.2561 4.38987 12.4421 12.2039C4.62814 20.0179 0.238281 30.616 0.238281 41.6667Z" fill="#F24E1E"/>
<path d="M0.238281 125C0.238281 136.051 4.62814 146.649 12.4421 154.463C20.2561 162.277 30.8542 166.667 41.9048 166.667H83.5714L83.5714 83.3333H41.9048C30.8542 83.3333 20.2561 87.7232 12.4421 95.5372C4.62814 103.351 0.238281 113.949 0.238281 125Z" fill="#A259FF"/>
</svg>
