<svg width="251" height="250" viewBox="0 0 251 250" fill="none" xmlns="http://www.w3.org/2000/svg">
<path fill-rule="evenodd" clip-rule="evenodd" d="M232.128 0H19.0806C8.89012 0 0.235352 8.05952 0.235352 17.9881V232C0.235352 241.94 5.91393 250 16.1044 250H229.152C239.354 250 250.235 241.94 250.235 232V17.9881C250.235 8.05952 242.331 0 232.128 0ZM95.4734 95.2381H129.128V112.393H129.497C134.628 103.143 149.783 93.75 168.521 93.75C204.485 93.75 214.521 112.845 214.521 148.214V214.286H178.807V154.726C178.807 138.893 172.485 125 157.7 125C139.747 125 131.188 137.155 131.188 157.107V214.286H95.4734V95.2381ZM35.9496 214.286H71.6639V95.2381H35.9496V214.286ZM76.1282 53.5714C76.1282 65.9048 66.1401 75.8929 53.8068 75.8929C41.4734 75.8929 31.4854 65.9048 31.4854 53.5714C31.4854 41.2381 41.4734 31.25 53.8068 31.25C66.1401 31.25 76.1282 41.2381 76.1282 53.5714Z" fill="#0A66C2"/>
<path d="M76.1282 53.5714C76.1282 65.9048 66.1401 75.8929 53.8068 75.8929C41.4734 75.8929 31.4854 65.9048 31.4854 53.5714C31.4854 41.2381 41.4734 31.25 53.8068 31.25C66.1401 31.25 76.1282 41.2381 76.1282 53.5714Z" fill="white"/>
<path d="M35.9496 214.286H71.6639V95.2381H35.9496V214.286Z" fill="white"/>
<path d="M95.4734 95.2381H129.128V112.393H129.497C134.628 103.143 149.783 93.75 168.521 93.75C204.485 93.75 214.521 112.845 214.521 148.214V214.286H178.807V154.726C178.807 138.893 172.485 125 157.7 125C139.747 125 131.188 137.155 131.188 157.107V214.286H95.4734V95.2381Z" fill="white"/>
</svg>
