<svg width="275" height="250" viewBox="0 0 275 250" fill="none" xmlns="http://www.w3.org/2000/svg">
<path d="M148.819 37.0842C141.638 35.2579 133.901 35.2579 126.719 37.0842C118.554 39.1604 111.474 44.7014 97.3134 55.7834L97.3114 55.7849L95.0676 57.541C95.1829 57.9292 95.3197 58.3145 95.4779 58.6958C96.8047 61.8908 100.345 64.6616 107.426 70.203L117.54 78.1189L117.543 78.1208C124.622 83.661 128.162 86.4312 132.244 87.4689C135.835 88.3823 139.704 88.3823 143.294 87.4689C147.377 86.4311 150.918 83.6603 157.998 78.1189L168.113 70.203C175.194 64.6616 178.734 61.8908 180.06 58.6958C180.219 58.3144 180.355 57.929 180.471 57.5407L178.227 55.7849C164.066 44.7019 156.985 39.1605 148.819 37.0842Z" fill="#FF8686"/>
<path d="M126.719 37.0842C133.901 35.2579 141.638 35.2579 148.819 37.0842C156.985 39.1605 164.066 44.7019 178.227 55.7849L180.471 57.5407C181.206 55.0677 181.069 52.4766 180.06 50.0476C178.734 46.8526 175.194 44.0818 168.113 38.5403L157.998 30.6247C150.918 25.0832 147.377 22.3124 143.294 21.2743C139.704 20.3611 135.835 20.3611 132.244 21.2743C128.162 22.3123 124.622 25.0827 117.542 30.6231L117.54 30.6247L107.426 38.5403C100.345 44.0818 96.8047 46.8526 95.4779 50.0476C94.4697 52.4767 94.3329 55.0679 95.0676 57.541L97.3114 55.7849L97.3134 55.7834C111.474 44.7014 118.554 39.1604 126.719 37.0842Z" fill="#FF8686"/>
<path d="M28.0483 111.467C29.3749 114.662 32.9152 117.433 39.996 122.974L117.54 183.661L117.542 183.663C124.622 189.203 128.162 191.973 132.244 193.011C135.835 193.924 139.704 193.924 143.294 193.011C147.377 191.973 150.918 189.202 157.998 183.661L168.113 175.745C175.194 170.204 178.734 167.433 180.06 164.238C181.227 161.427 181.227 158.401 180.06 155.59C178.734 152.395 175.194 149.624 168.113 144.083L90.5682 83.3957C83.4877 77.8542 79.9474 75.0835 75.8645 74.0457C75.3772 73.9217 74.8849 73.8146 74.3888 73.7243L27.6378 110.312C27.7531 110.7 27.89 111.086 28.0483 111.467Z" fill="#768CFF"/>
<path d="M39.996 91.3115C32.9152 96.853 29.3749 99.6237 28.0483 102.819C27.0399 105.248 26.9031 107.839 27.6378 110.312L74.3888 73.7243C71.2289 73.1491 67.9181 73.2562 64.8145 74.0457C60.7317 75.0835 57.1913 77.8542 50.1105 83.3957L39.996 91.3115Z" fill="#768CFF"/>
<path d="M162.908 111.467C164.235 114.662 167.775 117.433 174.855 122.974L184.97 130.89L184.972 130.891C192.052 136.432 195.592 139.202 199.674 140.24C203.265 141.154 207.133 141.154 210.724 140.24C214.807 139.202 218.347 136.431 225.428 130.89L235.543 122.974L235.547 122.971C242.625 117.432 246.164 114.661 247.49 111.467C247.648 111.086 247.785 110.7 247.901 110.312L201.15 73.7243C200.654 73.8146 200.161 73.9217 199.674 74.0457C195.592 75.0834 192.052 77.8536 184.972 83.3938L184.97 83.3957L174.855 91.3115C167.775 96.853 164.235 99.6237 162.908 102.819C161.741 105.629 161.741 108.657 162.908 111.467Z" fill="#5AFF88"/>
<path d="M225.428 83.3957C218.347 77.8542 214.807 75.0835 210.724 74.0457C207.621 73.2562 204.31 73.1491 201.15 73.7243L247.901 110.312C248.636 107.839 248.499 105.248 247.49 102.819C246.164 99.6244 242.625 96.8542 235.547 91.315L235.543 91.3115L225.428 83.3957Z" fill="#5AFF88"/>
<path fill-rule="evenodd" clip-rule="evenodd" d="M2.61472 98.4945C1.44783 101.305 0.86442 104.224 0.864502 107.143C0.864507 107.325 0.866786 107.508 0.871339 107.69C0.939707 110.426 1.52083 113.156 2.61472 115.791C5.2677 122.181 12.3485 127.722 26.5101 138.805L97.3114 194.215L97.3139 194.217C111.474 205.299 118.554 210.84 126.719 212.916C133.901 214.742 141.638 214.742 148.82 212.916C156.985 210.84 164.066 205.298 178.227 194.215L249.029 138.805C263.19 127.722 270.271 122.181 272.924 115.791C273.52 114.355 273.963 112.892 274.255 111.414C274.534 109.999 274.674 108.571 274.674 107.143C274.674 104.224 274.09 101.305 272.924 98.4945C270.271 92.105 263.19 86.5637 249.03 75.4807L249.029 75.4798L178.227 20.0705C164.066 8.98749 156.985 3.44599 148.82 1.36974C141.638 -0.456579 133.901 -0.456579 126.719 1.36974C118.554 3.44585 111.474 8.98678 97.3142 20.0683L97.3114 20.0704L26.5101 75.4798L26.5067 75.4825C12.3475 86.5642 5.26748 92.1053 2.61472 98.4945ZM95.4779 50.0476C94.4697 52.4767 94.3329 55.0679 95.0676 57.541C95.1829 57.9292 95.3197 58.3145 95.4779 58.6958C96.8047 61.8908 100.345 64.6616 107.426 70.203L117.54 78.1189L117.543 78.1208C124.622 83.661 128.162 86.4312 132.244 87.4689C135.835 88.3823 139.704 88.3823 143.294 87.4689C147.377 86.4311 150.918 83.6603 157.998 78.1189L168.113 70.203C175.194 64.6616 178.734 61.8908 180.06 58.6958C180.219 58.3144 180.355 57.929 180.471 57.5407C181.206 55.0677 181.069 52.4766 180.06 50.0476C178.734 46.8526 175.194 44.0818 168.113 38.5403L157.998 30.6247C150.918 25.0832 147.377 22.3124 143.294 21.2743C139.704 20.3611 135.835 20.3611 132.244 21.2743C128.162 22.3123 124.622 25.0827 117.542 30.6231L117.54 30.6247L107.426 38.5403C100.345 44.0818 96.8047 46.8526 95.4779 50.0476ZM39.996 122.974C32.9152 117.433 29.3749 114.662 28.0483 111.467C27.89 111.086 27.7531 110.7 27.6378 110.312C26.9031 107.839 27.0399 105.248 28.0483 102.819C29.3749 99.6237 32.9152 96.853 39.996 91.3115L50.1105 83.3957C57.1913 77.8542 60.7317 75.0835 64.8145 74.0457C67.9181 73.2562 71.2289 73.1491 74.3888 73.7243C74.8849 73.8146 75.3772 73.9217 75.8645 74.0457C79.9474 75.0835 83.4877 77.8542 90.5682 83.3957L168.113 144.083C175.194 149.624 178.734 152.395 180.06 155.59C181.227 158.401 181.227 161.427 180.06 164.238C178.734 167.433 175.194 170.204 168.113 175.745L157.998 183.661C150.918 189.202 147.377 191.973 143.294 193.011C139.704 193.924 135.835 193.924 132.244 193.011C128.162 191.973 124.622 189.203 117.542 183.663L117.54 183.661L39.996 122.974ZM174.855 122.974C167.775 117.433 164.235 114.662 162.908 111.467C161.741 108.657 161.741 105.629 162.908 102.819C164.235 99.6237 167.775 96.853 174.855 91.3115L184.97 83.3957L184.972 83.3938C192.052 77.8536 195.592 75.0834 199.674 74.0457C200.161 73.9217 200.654 73.8146 201.15 73.7243C204.31 73.1491 207.621 73.2562 210.724 74.0457C214.807 75.0835 218.347 77.8542 225.428 83.3957L235.543 91.3115L235.547 91.315C242.625 96.8542 246.164 99.6244 247.49 102.819C248.499 105.248 248.636 107.839 247.901 110.312C247.785 110.7 247.648 111.086 247.49 111.467C246.164 114.661 242.625 117.432 235.547 122.971L235.543 122.974L225.428 130.89C218.347 136.431 214.807 139.202 210.724 140.24C207.133 141.154 203.265 141.154 199.674 140.24C195.592 139.202 192.052 136.432 184.972 130.891L184.97 130.89L174.855 122.974Z" fill="white"/>
<path d="M2.61465 151.505C5.26764 157.896 12.3484 163.437 26.51 174.52L97.3114 229.93L97.3137 229.932C111.474 241.013 118.554 246.554 126.719 248.63C133.901 250.457 141.638 250.457 148.819 248.63C156.985 246.554 164.066 241.013 178.227 229.93L249.029 174.52C263.19 163.437 270.271 157.896 272.924 151.505C274.091 148.695 274.674 145.776 274.674 142.857V107.143C274.674 108.571 274.534 109.999 274.255 111.414C273.963 112.892 273.52 114.355 272.924 115.791C270.271 122.181 263.19 127.722 249.029 138.805L178.227 194.215C164.066 205.298 156.985 210.84 148.82 212.916C141.638 214.742 133.901 214.742 126.719 212.916C118.554 210.84 111.474 205.299 97.3139 194.217L97.3114 194.215L26.5101 138.805C12.3485 127.722 5.2677 122.181 2.61472 115.791C1.52083 113.156 0.939707 110.426 0.871339 107.69C0.866786 107.508 0.864507 107.325 0.864502 107.143V142.802L2.61465 151.505Z" fill="#DBDBDB"/>
</svg>
