<svg width="235" height="250" viewBox="0 0 235 250" fill="none" xmlns="http://www.w3.org/2000/svg">
<path fill-rule="evenodd" clip-rule="evenodd" d="M179.21 3.21563C206.963 7.31756 230.374 28.4862 233.988 55.3474C235.562 71.324 234.783 95.3288 234.404 106.998C234.31 109.902 234.241 112.042 234.238 113.104C234.238 114.672 234.011 128.989 233.92 130.5C231.488 168.883 207.554 184.041 182.404 188.87C182.133 188.952 181.826 189.011 181.512 189.072C181.431 189.088 181.349 189.104 181.267 189.12C165.323 192.234 148.242 193.063 132.036 193.518C128.16 193.62 124.297 193.62 120.421 193.62C104.308 193.624 88.251 191.717 72.5874 187.939C72.5042 187.917 72.4174 187.915 72.3336 187.934C72.2497 187.952 72.1716 187.99 72.1051 188.044C72.0387 188.098 71.9858 188.167 71.9513 188.246C71.9165 188.324 71.9007 188.41 71.9054 188.495C72.3485 193.595 73.4564 198.614 75.201 203.426C77.3719 208.994 84.952 222.368 113.136 222.368C129.514 222.398 145.837 220.49 161.766 216.686C161.847 216.668 161.931 216.667 162.012 216.685C162.093 216.703 162.169 216.739 162.234 216.79C162.3 216.842 162.353 216.907 162.39 216.981C162.427 217.056 162.446 217.137 162.448 217.22V236.059C162.445 236.148 162.422 236.235 162.38 236.314C162.339 236.393 162.28 236.461 162.209 236.514C157.229 240.123 150.532 242.245 144.667 244.104C144.402 244.188 144.139 244.271 143.878 244.354C141.211 245.195 138.51 245.934 135.775 246.57C110.912 252.232 84.9643 250.863 60.8361 242.616C38.3 234.708 15.298 215.323 9.61564 192.029C6.58111 179.417 4.44298 166.606 3.21734 153.691C1.92953 139.569 1.49922 125.423 1.06832 111.257C0.906011 105.922 0.743618 100.583 0.535284 95.2421C0.00114352 81.6294 0.307991 66.7898 3.18325 53.4044C9.16108 26.225 33.7997 7.20392 60.7795 3.21563C61.334 3.13355 61.9465 3.0258 62.6638 2.89963C68.0034 1.96042 79.1485 0 115.386 0H115.693C156.788 0 174.528 2.52251 179.21 3.21563ZM194.144 152.259V85.5262C194.151 71.8835 190.677 61.0512 183.722 53.0291C176.517 45.0183 167.096 40.905 155.413 40.905C141.9 40.905 131.672 46.1091 124.853 56.506L118.262 67.5506L111.682 56.506C104.863 46.1091 94.6347 40.905 81.0992 40.905C69.4052 40.905 59.9837 45.0183 52.8014 53.0291C45.8384 61.0588 42.3571 71.8911 42.3571 85.5262V152.259H68.7913V87.492C68.7913 73.8569 74.5305 66.9028 86.0204 66.9028C98.7261 66.9028 105.101 75.1294 105.101 91.3781V126.83H131.388V91.3781C131.388 75.1294 137.752 66.9028 150.458 66.9028C162.016 66.9028 167.698 73.8569 167.698 87.492V152.259H194.144Z" fill="#6364FF"/>
<path d="M194.144 85.5262V152.259H167.698V87.492C167.698 73.8569 162.016 66.9028 150.458 66.9028C137.752 66.9028 131.388 75.1294 131.388 91.3781V126.83H105.101V91.3781C105.101 75.1294 98.7261 66.9028 86.0204 66.9028C74.5305 66.9028 68.7913 73.8569 68.7913 87.492V152.259H42.3571V85.5262C42.3571 71.8911 45.8384 61.0588 52.8014 53.0291C59.9837 45.0183 69.4052 40.905 81.0992 40.905C94.6347 40.905 104.863 46.1091 111.682 56.506L118.262 67.5506L124.853 56.506C131.672 46.1091 141.9 40.905 155.413 40.905C167.096 40.905 176.517 45.0183 183.722 53.0291C190.677 61.0512 194.151 71.8835 194.144 85.5262Z" fill="white"/>
</svg>
