<svg width="394" height="250" viewBox="0 0 394 250" fill="none" xmlns="http://www.w3.org/2000/svg">
<path fill-rule="evenodd" clip-rule="evenodd" d="M391.174 75.0955C403.82 141.891 353.629 192.087 282.495 188.135C282.873 206.462 279.212 239.34 243.822 248.194C240.993 248.901 238.082 249.215 235.167 249.234C173.01 249.62 43.4019 250 43.4019 250C43.4019 250 3.70547 250.013 1.02463 210.392C0.142213 143.281 0.608408 17.6293 0.608408 17.6293C0.608408 17.6293 0.585138 15.1079 0.590308 14.4779C0.628224 9.6462 4.41208 0 14.2927 0H298.306C318.319 0 337.972 5.88647 354.381 17.3432C370.248 28.4207 385.729 46.3361 391.174 75.0955ZM311.265 140.307C328.806 134.62 344.924 122.296 344.924 91.0159C344.924 78.2201 340.39 68.9565 334.724 62.3746C326.673 53.0257 314.773 47.8889 302.435 47.8889H283.769V140.779C283.769 140.779 296.094 142.203 311.265 140.307ZM139.71 197.892C142.799 199.447 144.772 197.515 144.772 197.515C144.772 197.515 189.976 156.257 210.341 132.496C228.454 111.241 229.635 75.4203 198.529 62.036C167.423 48.6524 141.831 77.7815 141.831 77.7815C119.637 53.3721 86.0481 54.6078 70.512 71.1272C54.9767 87.6466 60.4021 116 71.9915 131.779C82.8709 146.592 130.691 189.214 137.939 196.422C137.939 196.422 138.467 196.973 139.71 197.892Z" fill="white"/>
<path d="M139.71 197.892C142.799 199.447 144.772 197.515 144.772 197.515C144.772 197.515 189.976 156.257 210.341 132.496C228.454 111.241 229.635 75.4203 198.529 62.036C167.423 48.6524 141.831 77.7815 141.831 77.7815C119.637 53.3721 86.0481 54.6078 70.512 71.1272C54.9767 87.6466 60.4021 116 71.9915 131.779C82.8709 146.592 130.691 189.214 137.939 196.422C137.939 196.422 138.467 196.973 139.71 197.892Z" fill="#FF5E5B"/>
</svg>
