<svg width="259" height="250" viewBox="0 0 259 250" fill="none" xmlns="http://www.w3.org/2000/svg">
<path d="M112.991 172.997C80.8627 172.997 61.9637 147.045 61.9637 114.762C61.9637 81.2137 82.7521 53.9955 122.439 53.9955C163.387 53.9955 177.246 81.8471 177.876 97.6712H148.268C147.639 88.8099 140.079 75.517 121.81 75.517C102.281 75.517 89.6818 92.6079 89.6818 113.496C89.6818 134.385 102.281 151.475 121.81 151.475C139.449 151.475 147.008 137.55 150.158 123.624H121.81V112.23H181.294V170.465H155.198V133.752C153.308 147.045 145.118 172.997 112.991 172.997Z" fill="black"/>
<path fill-rule="evenodd" clip-rule="evenodd" d="M121.625 11.9961C61.5329 11.9961 12.8242 59.0099 12.8242 116.997C12.8242 152.411 30.9914 183.732 58.8238 202.751C76.5646 214.874 98.2324 221.998 121.625 221.998C181.718 221.998 230.427 174.985 230.427 116.997C230.427 95.6626 223.833 75.8135 212.506 59.2446C193.044 30.7794 159.609 11.9961 121.625 11.9961ZM61.9637 114.762C61.9637 147.045 80.8627 172.997 112.991 172.997C145.118 172.997 153.308 147.045 155.198 133.752V170.465H181.294V112.23H121.81V123.624H150.158C147.008 137.55 139.449 151.475 121.81 151.475C102.281 151.475 89.6818 134.385 89.6818 113.496C89.6818 92.6079 102.281 75.517 121.81 75.517C140.079 75.517 147.639 88.8099 148.268 97.6712H177.876C177.246 81.8471 163.387 53.9955 122.439 53.9955C82.7521 53.9955 61.9637 81.2137 61.9637 114.762Z" fill="#FF90E8"/>
<path fill-rule="evenodd" clip-rule="evenodd" d="M121.625 0C55.3197 0 0.828125 51.9799 0.828125 116.997C0.828125 168.722 35.3149 212.194 82.801 227.808C101.255 241.714 124.477 250 149.704 250C209.793 250 258.505 202.989 258.505 144.999C258.505 121.543 250.536 99.8846 237.069 82.4059C221.798 34.4823 175.63 0 121.625 0ZM121.625 221.998C98.2324 221.998 76.5646 214.874 58.8238 202.751C62.0017 207.399 65.5521 211.789 69.4341 215.881C32.3283 197.538 6.82618 160.234 6.82618 116.997C6.82618 55.4949 58.4263 5.99805 121.625 5.99805C167.411 5.99805 207.109 31.9764 225.509 69.6776C221.466 65.8869 217.118 62.3968 212.506 59.2446C223.833 75.8135 230.427 95.6626 230.427 116.997C230.427 174.985 181.718 221.998 121.625 221.998ZM61.9637 114.762C61.9637 147.045 80.8627 172.997 112.991 172.997C145.118 172.997 153.308 147.045 155.198 133.752V170.465H181.294V112.23H121.81V123.624H150.158C147.008 137.55 139.449 151.475 121.81 151.475C102.281 151.475 89.6818 134.385 89.6818 113.496C89.6818 92.6079 102.281 75.517 121.81 75.517C140.079 75.517 147.639 88.8099 148.268 97.6712H177.876C177.246 81.8471 163.387 53.9955 122.439 53.9955C82.7521 53.9955 61.9637 81.2137 61.9637 114.762Z" fill="black"/>
<path d="M121.625 5.99805C58.4263 5.99805 6.82618 55.4949 6.82618 116.997C6.82618 160.234 32.3283 197.538 69.4341 215.881C65.5521 211.789 62.0017 207.399 58.8238 202.751C30.9914 183.732 12.8242 152.411 12.8242 116.997C12.8242 59.0099 61.5329 11.9961 121.625 11.9961C159.609 11.9961 193.044 30.7794 212.506 59.2446C217.118 62.3968 221.466 65.8869 225.509 69.6776C207.109 31.9764 167.411 5.99805 121.625 5.99805Z" fill="black"/>
</svg>
