<svg width="377" height="250" viewBox="0 0 377 250" fill="none" xmlns="http://www.w3.org/2000/svg">
<path d="M270.129 0C239.281 0 215.167 23.234 193.338 52.7483C163.341 14.5538 138.254 0 108.232 0C47.0255 0 0.128906 79.6552 0.128906 163.966C0.128906 216.724 25.6528 250 68.4048 250C99.1749 250 121.305 235.494 160.646 166.724C160.646 166.724 177.045 137.764 188.327 117.815C192.281 124.197 196.444 131.075 200.819 138.448L219.267 169.483C255.204 229.62 275.226 250 311.508 250C353.157 250 376.336 216.269 376.336 162.414C376.336 74.1379 328.382 0 270.129 0ZM130.646 148.103C98.7496 198.103 87.7151 209.31 69.9565 209.31C51.6806 209.31 40.8185 193.266 40.8185 164.655C40.8185 103.448 71.3358 40.8621 107.715 40.8621C127.415 40.8621 143.879 52.2396 169.096 88.3404C145.151 125.068 130.646 148.103 130.646 148.103ZM251.028 141.809L228.971 105.022C223.002 95.3139 217.265 86.3781 211.761 78.2144C231.641 47.5306 248.04 32.2415 267.543 32.2415C308.06 32.2415 340.474 91.8966 340.474 165.172C340.474 193.104 331.325 209.31 312.37 209.31C294.203 209.31 285.524 197.312 251.028 141.809Z" fill="#0082FB"/>
</svg>
