<svg width="251" height="250" viewBox="0 0 251 250" fill="none" xmlns="http://www.w3.org/2000/svg">
<path d="M184.181 150.125C181.67 148.876 165.342 141.386 162.831 140.137C160.32 138.889 157.807 138.889 155.296 141.386C152.784 143.883 147.761 151.374 145.249 153.87C143.992 156.367 141.481 156.367 138.97 155.118C130.178 151.374 121.387 146.38 113.852 140.137C107.572 133.895 101.293 126.405 96.2693 118.914C95.0134 116.417 96.2693 113.92 97.5251 112.672C98.781 111.423 100.037 108.926 102.549 107.678C103.805 106.43 105.06 103.933 105.06 102.684C106.316 101.436 106.316 98.9388 105.06 97.6904C103.805 96.4419 97.5251 81.4607 95.0134 75.2185C93.7575 66.4794 91.2457 66.4794 88.734 66.4794C87.4781 66.4794 84.9664 66.4794 82.4546 66.4794C79.9428 66.4794 76.1752 68.9763 74.9193 70.2247C67.3841 77.7153 63.6163 86.4544 63.6163 96.4419C64.8722 107.678 68.6399 118.914 76.1752 128.901C89.9899 148.876 107.572 165.106 128.922 175.093C135.202 177.591 140.225 180.088 146.505 181.336C152.784 183.833 159.063 183.833 166.599 182.584C175.39 181.336 182.925 175.093 187.949 167.603C190.46 162.609 190.461 157.616 189.205 152.622C189.205 152.622 186.692 151.374 184.181 150.125ZM215.579 36.5169C166.599 -12.1723 87.4781 -12.1723 38.4988 36.5169C-1.6895 76.4669 -9.22479 137.641 18.4046 186.33L0.822266 250L67.3841 232.522C86.2222 242.509 106.316 247.503 126.411 247.503C195.484 247.503 250.743 192.572 250.743 123.908C251.999 91.4482 238.184 60.2372 215.579 36.5169ZM181.67 211.299C165.342 221.286 146.505 227.528 126.411 227.528C107.572 227.528 89.9899 222.534 73.6635 213.795L69.8958 211.299L30.9635 221.286L41.0105 183.833L38.4988 180.087C8.35756 130.15 23.4281 67.7278 72.4076 36.5169C121.387 5.30586 184.181 21.5355 214.322 68.9763C244.464 117.666 230.649 181.336 181.67 211.299Z" fill="white"/>
<path fill-rule="evenodd" clip-rule="evenodd" d="M181.67 211.299C165.342 221.286 146.505 227.528 126.411 227.528C107.572 227.528 89.9899 222.534 73.6635 213.795L69.8958 211.299L30.9635 221.286L41.0105 183.833L38.4988 180.087C8.35756 130.15 23.4281 67.7278 72.4076 36.5169C121.387 5.30586 184.181 21.5355 214.322 68.9763C244.464 117.666 230.649 181.336 181.67 211.299ZM162.831 140.137C165.342 141.386 181.67 148.876 184.181 150.125C186.692 151.374 189.205 152.622 189.205 152.622C190.461 157.616 190.46 162.609 187.949 167.603C182.925 175.093 175.39 181.336 166.599 182.584C159.063 183.833 152.784 183.833 146.505 181.336C140.225 180.088 135.202 177.591 128.922 175.093C107.572 165.106 89.9899 148.876 76.1752 128.901C68.6399 118.914 64.8722 107.678 63.6163 96.4419C63.6163 86.4544 67.3841 77.7153 74.9193 70.2247C76.1752 68.9763 79.9428 66.4794 82.4546 66.4794H88.734C91.2457 66.4794 93.7575 66.4794 95.0134 75.2185C97.5251 81.4607 103.805 96.4419 105.06 97.6904C106.316 98.9388 106.316 101.436 105.06 102.684C105.06 103.933 103.805 106.43 102.549 107.678C100.037 108.926 98.781 111.423 97.5251 112.672C96.2693 113.92 95.0134 116.417 96.2693 118.914C101.293 126.405 107.572 133.895 113.852 140.137C121.387 146.38 130.178 151.374 138.97 155.118C141.481 156.367 143.992 156.367 145.249 153.87C147.761 151.374 152.784 143.883 155.296 141.386C157.807 138.889 160.32 138.889 162.831 140.137Z" fill="#25D366"/>
</svg>
