<svg width="255" height="250" viewBox="0 0 255 250" fill="none" xmlns="http://www.w3.org/2000/svg">
<path d="M254.441 189.372C253.334 185.708 248.035 183.124 248.035 183.124C247.534 182.861 247.086 182.623 246.717 182.439C237.886 178.169 230.057 173.028 223.467 167.203C218.169 162.511 213.635 157.344 209.997 151.861C205.543 145.166 203.46 139.577 202.564 136.546C202.063 134.569 202.142 133.778 202.564 132.75C202.907 131.88 203.935 131.063 204.409 130.667C207.388 128.559 212.185 125.448 215.138 123.55C217.695 121.89 219.882 120.466 221.174 119.57C225.313 116.67 228.16 113.718 229.82 110.528C231.982 106.416 232.245 101.882 230.558 97.4273C228.291 91.4171 222.677 87.8321 215.533 87.8321C213.951 87.8321 212.317 88.0167 210.683 88.3594C206.597 89.2556 202.722 90.7054 199.48 91.9707C199.242 92.0761 198.979 91.8916 199.005 91.628C199.348 83.5882 199.743 72.7805 198.847 62.5264C198.056 53.2476 196.132 45.4186 193.021 38.5913C189.885 31.7377 185.799 26.6765 182.609 23.0124C179.578 19.5329 174.227 14.3927 166.16 9.77963C154.826 3.29502 141.909 0 127.78 0C113.677 0 100.787 3.29502 89.426 9.77963C80.8853 14.6563 75.4287 20.1655 72.9509 23.0124C69.7613 26.6765 65.6755 31.7377 62.5386 38.5913C59.4018 45.4186 57.5038 53.2212 56.713 62.5264C55.8168 72.8332 56.1858 82.771 56.5549 91.628C56.5549 91.8916 56.3176 92.0761 56.054 91.9707C52.8117 90.7054 48.9368 89.2556 44.8509 88.3594C43.243 88.0167 41.6086 87.8321 40.0007 87.8321C32.8834 87.8321 27.2687 91.4171 24.9754 97.4273C23.2883 101.882 23.5519 106.416 25.7135 110.528C27.4005 113.718 30.2211 116.67 34.3596 119.57C35.6249 120.466 37.8391 121.89 40.3961 123.55C43.2693 125.422 47.9351 128.453 50.9401 130.536C51.3092 130.799 52.5745 131.748 52.9699 132.75C53.3916 133.804 53.4707 134.595 52.9172 136.704C51.9946 139.762 49.9121 145.297 45.5363 151.861C41.8986 157.37 37.3647 162.511 32.0663 167.203C25.4762 173.028 17.6473 178.169 8.8166 182.439C8.39483 182.65 7.89399 182.887 7.36679 183.203C7.36679 183.203 2.09475 185.892 1.09307 189.372C-0.383103 194.512 3.54456 199.336 7.52495 201.919C14.0623 206.137 22.023 208.404 26.6361 209.643C27.9277 209.985 29.0876 210.302 30.142 210.618C30.801 210.829 32.4617 211.461 33.1734 212.384C34.0696 213.544 34.1751 214.967 34.4914 216.575C34.9922 219.29 36.1257 222.638 39.4735 224.958C43.1639 227.488 47.8296 227.673 53.7607 227.91C59.9553 228.147 67.6525 228.437 76.4832 231.363C80.569 232.708 84.2858 235.001 88.5561 237.637C97.5186 243.146 108.669 250 127.701 250C146.759 250 157.989 243.12 167.004 237.584C171.274 234.975 174.938 232.708 178.945 231.39C187.776 228.464 195.473 228.174 201.668 227.937C207.599 227.699 212.264 227.541 215.955 224.984C219.54 222.506 220.568 218.816 221.042 216.048C221.306 214.677 221.464 213.438 222.255 212.437C222.94 211.567 224.469 210.961 225.181 210.723C226.262 210.381 227.474 210.064 228.819 209.695C233.432 208.456 239.231 207.007 246.269 203.026C254.757 198.202 255.337 192.298 254.441 189.372Z" fill="#FFFC00"/>
</svg>
