<svg width="251" height="250" viewBox="0 0 251 250" fill="none" xmlns="http://www.w3.org/2000/svg">
<path d="M125.752 0C56.7169 0 0.75 55.9654 0.75 125.001C0.75 194.039 56.7169 250 125.752 250C194.795 250 250.756 194.039 250.756 125.001C250.756 55.9699 194.795 0.00597072 125.751 0.00597072L125.752 0ZM183.077 180.287C180.838 183.959 176.032 185.123 172.36 182.869C143.011 164.942 106.064 160.882 62.5518 170.823C58.3588 171.779 54.1793 169.151 53.224 164.957C52.2642 160.763 54.8809 156.583 59.0843 155.628C106.701 144.749 147.545 149.433 180.495 169.569C184.167 171.823 185.331 176.615 183.077 180.287ZM198.378 146.251C195.556 150.836 189.556 152.284 184.973 149.463C151.373 128.81 100.154 122.829 60.4113 134.893C55.257 136.45 49.8132 133.545 48.2488 128.4C46.6965 123.245 49.6027 117.812 54.748 116.245C100.145 102.47 156.582 109.142 195.168 132.854C199.751 135.675 201.199 141.674 198.378 146.251ZM199.691 110.808C159.403 86.879 92.934 84.6788 54.4689 96.3531C48.2921 98.2264 41.7601 94.7395 39.8883 88.5627C38.0165 82.383 41.5004 75.8555 47.6816 73.9777C91.8369 60.5733 165.24 63.1631 211.624 90.6988C217.191 93.9961 219.012 101.171 215.714 106.72C212.43 112.276 205.235 114.107 199.697 110.808H199.691Z" fill="#1DB954"/>
<path d="M199.691 110.808C159.403 86.879 92.934 84.6788 54.4689 96.3531C48.2921 98.2264 41.7601 94.7395 39.8883 88.5627C38.0165 82.383 41.5004 75.8555 47.6816 73.9777C91.8369 60.5733 165.24 63.1631 211.624 90.6988C217.191 93.9961 219.012 101.171 215.714 106.72C212.43 112.276 205.235 114.107 199.697 110.808H199.691Z" fill="#191414"/>
<path d="M198.378 146.251C195.556 150.836 189.556 152.284 184.973 149.463C151.373 128.81 100.154 122.829 60.4113 134.893C55.257 136.45 49.8132 133.545 48.2488 128.4C46.6965 123.245 49.6027 117.812 54.748 116.245C100.145 102.47 156.582 109.142 195.168 132.854C199.751 135.675 201.199 141.674 198.378 146.251Z" fill="#191414"/>
<path d="M183.077 180.287C180.838 183.959 176.032 185.123 172.36 182.869C143.011 164.942 106.064 160.882 62.5518 170.823C58.3588 171.779 54.1793 169.151 53.224 164.957C52.2642 160.763 54.8809 156.583 59.0843 155.628C106.701 144.749 147.545 149.433 180.495 169.569C184.167 171.823 185.331 176.615 183.077 180.287Z" fill="#191414"/>
</svg>
