<svg width="309" height="250" viewBox="0 0 309 250" fill="none" xmlns="http://www.w3.org/2000/svg">
<path d="M276.78 62.2369C276.967 64.9492 276.967 67.6615 276.967 70.3988C276.967 153.806 213.471 250 97.3658 250V249.95C63.068 250 29.4826 240.176 0.609375 221.652C5.59656 222.252 10.6087 222.552 15.6334 222.564C44.0566 222.589 71.6674 213.052 94.0285 195.491C67.0177 194.978 43.3317 177.367 35.0572 151.656C44.5191 153.481 54.2685 153.106 63.5554 150.569C34.1073 144.619 12.9211 118.746 12.9211 88.6977C12.9211 88.4227 12.9211 88.1602 12.9211 87.8977C21.6956 92.7849 31.5199 95.4973 41.5693 95.7972C13.8335 77.2609 5.28408 40.3632 22.033 11.5151C54.081 50.9501 101.366 74.9236 152.125 77.4609C147.038 55.5373 153.987 32.5637 170.386 17.1522C195.81 -6.74629 235.795 -5.52137 259.693 19.8895C273.83 17.1022 287.379 11.915 299.778 4.56549C295.066 19.1771 285.204 31.5888 272.03 39.4758C284.542 38.0009 296.766 34.6511 308.278 29.5389C299.803 42.2381 289.129 53.2999 276.78 62.2369Z" fill="#1DA1F2"/>
</svg>
