<svg width="358" height="250" viewBox="0 0 358 250" fill="none" xmlns="http://www.w3.org/2000/svg">
<path fill-rule="evenodd" clip-rule="evenodd" d="M318.509 7.46707C333.884 11.5828 345.968 23.6654 350.083 39.0405C357.52 66.8802 357.55 125 357.55 125C357.55 125 357.55 183.12 350.083 210.96C345.968 226.335 333.884 238.417 318.509 242.533C290.67 250 178.986 250 178.986 250C178.986 250 67.3041 250 39.4642 242.533C24.0892 238.417 12.0066 226.335 7.8909 210.96C0.42383 183.12 0.423828 125 0.423828 125C0.423828 125 0.42383 66.8802 7.8909 39.0405C12.0066 23.6654 24.0892 11.5828 39.4642 7.46707C67.3041 2.38419e-06 178.986 0 178.986 0C178.986 0 290.67 2.38419e-06 318.509 7.46707ZM236.02 125.005L143.24 178.568V71.4416L236.02 125.005Z" fill="#FF0000"/>
<path d="M143.24 178.568L236.02 125.005L143.24 71.4416V178.568Z" fill="white"/>
</svg>
