<svg width="244" height="250" viewBox="0 0 244 250" fill="none" xmlns="http://www.w3.org/2000/svg">
<path fill-rule="evenodd" clip-rule="evenodd" d="M169.515 187C171.98 188.303 175.144 188.163 177.33 186.21L177.422 186.303C184.027 180.441 196.029 169.974 202.774 164.346C205.472 162.114 205.007 158.532 202.867 155.555C202.218 154.657 201.566 153.777 200.917 152.902C195.517 145.624 190.401 138.728 190.401 124.899V73.3581C190.401 71.597 190.411 69.8475 190.421 68.1112C190.534 48.3374 190.637 30.2798 175.841 16.4679C163.141 4.28 142.116 0 126.02 0C94.5746 0 59.4551 11.7232 52.059 50.6109C51.3147 54.7516 54.2916 56.9372 56.9891 57.5432L89.0866 60.9848C92.0635 60.8456 94.2491 57.9148 94.808 54.937C97.5525 41.54 108.81 35.0744 121.416 35.0744C128.208 35.0744 135.929 37.5865 139.977 43.6805C144.109 49.7753 144.047 57.8934 143.99 65.1771C143.984 66.0093 143.978 66.8306 143.978 67.6367V71.9167C140.883 72.2697 137.634 72.602 134.286 72.9445C116.9 74.7228 96.8394 76.7748 81.7827 83.4065C61.0837 92.3372 46.5229 110.619 46.5229 137.459C46.5229 171.835 68.2004 189 96.018 189C119.556 189 132.395 183.465 150.536 164.951C151.493 166.327 152.347 167.591 153.15 168.781C157.427 175.111 160.274 179.325 169.515 187ZM143.979 107.351C143.978 106.77 143.978 106.185 143.978 105.595V98.4311C120.066 98.4311 94.808 103.548 94.808 131.738C94.808 146.018 102.204 155.694 114.904 155.694C124.207 155.694 132.534 149.973 137.79 140.668C144.005 129.749 143.993 119.465 143.979 107.351Z" fill="black"/>
<path d="M7.36769 190.221C48.4422 215.263 112.022 254.027 213.359 205.799H213.358C217.725 203.976 220.777 207.02 216.456 212.537C212.106 218.102 177.327 250 118.867 250C60.4474 250 15.6912 210.088 2.03438 193.529C-1.70633 189.232 2.60505 187.291 5.14167 188.864C5.87625 189.311 6.61822 189.764 7.36769 190.221Z" fill="#FF9900"/>
<path d="M216.629 186.602C225.489 185.514 239.567 186.186 242.338 189.795C244.444 192.542 242.268 204.891 238.699 213.743C235.107 222.547 229.753 228.769 226.796 231.171C223.797 233.574 221.591 232.644 223.188 229.035C224.84 225.427 233.886 203.053 230.301 198.357C226.98 194.015 211.915 195.587 204.916 196.317C204.396 196.371 203.92 196.421 203.497 196.463C202.018 196.596 200.827 196.729 199.862 196.837C196.849 197.173 196.044 197.263 195.594 196.339C194.436 193.082 207.755 187.659 216.629 186.602Z" fill="#FF9900"/>
</svg>
