<svg width="215" height="250" viewBox="0 0 215 250" fill="none" xmlns="http://www.w3.org/2000/svg">
<path d="M169.967 49.1071H152.11V102.679H169.967V49.1071Z" fill="#9146FF"/>
<path d="M103.003 49.1071H120.86V102.679H103.003V49.1071Z" fill="#9146FF"/>
<path fill-rule="evenodd" clip-rule="evenodd" d="M44.9671 0L0.324219 44.6429V205.357H53.8956V250L98.5385 205.357H134.253L214.61 125V0H44.9671ZM196.753 116.071L161.039 151.786H125.324L94.0742 183.036V151.786H53.8956V17.8571H196.753V116.071Z" fill="#9146FF"/>
<path fill-rule="evenodd" clip-rule="evenodd" d="M161.039 151.786L196.753 116.071V17.8571H53.8956V151.786H94.0742V183.036L125.324 151.786H161.039ZM169.967 49.1071H152.11V102.679H169.967V49.1071ZM103.003 49.1071H120.86V102.679H103.003V49.1071Z" fill="white"/>
</svg>
